<?xml version="1.0" standalone="no"?>
<!DOCTYPE svg PUBLIC "-//W3C//DTD SVG 20010904//EN"
 "http://www.w3.org/TR/2001/REC-SVG-20010904/DTD/svg10.dtd">
<svg version="1.0" xmlns="http://www.w3.org/2000/svg"
 width="2328pt" height="1456pt" viewBox="0 0 2328 1456"
 preserveAspectRatio="xMidYMid meet">
<metadata>
Created by potrace 1.9, written by Peter Selinger 2001-2010
</metadata><g id="Diff" style="opacity:0.5;fill:#80ff80">
<path d="M1963 1456 l-1 -13 -95 -1 -13 -12 0 -121 11 -10 231 0 11 12 0 119
-11 12 -97 0 0 14 z"/>
<path d="M1737 1318 l0 -114 61 0 0 47 23 1 1 11 157 0 0 -16 32 0 -1 30 -30
0 -1 -6 -181 0 0 47 z"/>
<path d="M321 1195 l-1 -3 1 -104 63 -1 0 -35 23 0 1 -4 28 -1 0 50 5 0 -1 97
z"/>
<path d="M612 1195 l-1 -3 1 -104 63 -1 0 -35 24 0 0 -5 28 1 1 49 4 0 0 98 z"/>
<path d="M900 1195 l-1 -3 1 -104 63 -1 0 -35 23 -1 1 -4 28 0 1 49 4 1 -1 97
z"/>
<path d="M1187 1195 l-1 -1 0 -107 64 0 0 -35 23 0 0 -5 29 0 0 50 4 1 0 96 z"/>
<path d="M1479 1195 l-1 -1 0 -104 1 -3 63 0 0 -35 23 0 1 -5 28 0 0 50 5 0
-1 97 z"/>
<path d="M1927 1183 l0 -119 161 0 0 34 -82 0 0 85 z"/>
<path d="M1749 1166 l-1 -3 1 -117 23 -1 1 -59 16 -1 5 1 -1 16 -9 1 1 41 20
1 0 121 z"/>
<path d="M1321 1162 l-1 -3 1 -14 6 -1 0 -87 -10 0 0 -57 30 0 0 158 -2 4 z"/>
<path d="M1615 1162 l-3 -1 1 -16 6 -1 0 -87 -10 0 0 -57 30 0 0 160 -2 2 z"/>
<path d="M454 1161 l1 -16 6 -1 0 -87 -10 0 0 -57 30 0 0 161 z"/>
<path d="M746 1161 l1 -16 6 -1 0 -87 -10 0 0 -57 30 0 0 161 z"/>
<path d="M1034 1161 l-1 -3 1 -13 6 -1 0 -87 -10 0 0 -57 30 0 0 161 z"/>
<path d="M526 1159 l0 -11 -1 -19 -31 0 1 -41 70 -1 0 -44 1 -43 21 0 0 17
-12 0 0 64 -1 78 z"/>
<path d="M818 1159 l-1 -29 -31 -1 0 -42 72 0 0 -47 1 -6 0 -34 20 1 0 15 -11
1 0 64 -1 78 z"/>
<path d="M1105 1159 l-1 -29 -31 -1 1 -41 3 -1 68 0 0 -87 21 0 0 17 -11 0 -1
90 -1 52 z"/>
<path d="M1395 1159 l-1 -1 0 -28 -30 0 -2 -3 1 -38 68 -2 4 0 0 -87 21 0 0
17 -11 0 -1 140 -1 2 z"/>
<path d="M1684 1159 l0 -29 -31 -1 -1 -41 19 -1 53 0 0 -87 21 0 0 17 -11 0
-1 140 -1 2 z"/>
<path d="M1849 1147 l1 -49 46 -1 0 -14 -46 -1 0 -15 16 -1 0 7 37 0 3 1 0 9
7 0 0 64 z"/>
<path d="M349 1069 l0 -17 4 0 0 -49 1 -3 23 0 -1 16 -10 1 0 18 -1 34 z"/>
<path d="M536 1069 l-1 -1 0 -16 4 -1 1 -115 -34 0 0 -17 33 -1 0 -36 -10 -1
-1 -44 -19 -1 0 24 -17 0 0 -50 54 0 0 33 28 0 -1 31 -7 1 0 42 -9 0 -1 61 -4
1 0 90 z"/>
<path d="M640 1069 l-1 -5 1 -11 4 -1 1 -51 23 -1 0 17 -11 0 -1 51 z"/>
<path d="M825 1069 l0 -17 5 0 0 -116 -34 0 0 -17 34 0 -1 -37 -10 -1 0 -44
-20 0 0 23 -18 0 1 -49 54 -1 1 32 27 2 1 31 -9 0 0 42 -9 0 0 62 -5 0 0 90 z"/>
<path d="M928 1069 l0 -17 4 0 0 -48 1 -4 24 0 -1 16 -11 1 -1 51 z"/>
<path d="M1114 1069 l0 -17 5 0 0 -116 -34 0 0 -17 34 0 0 -38 -11 0 0 -44
-20 0 0 23 -17 1 0 -51 54 0 0 31 2 2 26 1 1 30 -8 1 -1 42 -9 0 0 62 -5 0 0
90 z"/>
<path d="M1215 1069 l-1 -1 0 -16 5 0 0 -52 24 0 0 17 -12 0 0 52 z"/>
<path d="M1404 1069 l0 -17 4 -1 0 -114 -33 -2 0 -15 34 -1 0 -35 -2 -2 -8 -1
-1 -44 -21 0 -1 22 -16 1 1 -49 54 -1 0 33 28 1 0 30 -7 1 -1 41 -9 1 0 62 -5
0 0 90 z"/>
<path d="M1507 1069 l0 -17 4 0 0 -49 1 -3 24 0 -1 16 -11 1 0 52 z"/>
<path d="M1693 1069 l0 -17 5 0 -1 -115 -33 -1 0 -17 34 0 0 -38 -10 -1 -1
-43 -20 0 0 23 -17 0 0 -50 54 1 1 32 27 1 0 30 -7 1 0 42 -10 0 0 62 -5 0 0
90 z"/>
<path d="M1860 1053 l-2 -4 0 -44 1 -3 51 0 0 -49 -25 0 0 35 -53 1 -1 42 -17
0 0 -17 7 0 1 -35 8 -1 3 0 1 -23 5 -1 0 -43 -12 -1 0 26 -5 0 -1 9 -46 0 0
-77 82 -1 0 47 22 -1 1 -36 -9 -1 -1 -61 1 -5 4 0 1 -44 49 -1 0 -11 -6 -1 -1
-16 17 0 0 38 -49 1 -1 33 4 4 33 0 0 -7 1 -3 50 0 0 26 5 0 0 74 -26 0 0 58
0 24 7 1 -1 16 -15 1 -2 -2 0 -81 -6 -1 -1 -16 7 0 1 -25 23 -1 0 -14 -4 0 -1
-3 0 -22 3 -1 0 -9 -10 -1 -49 0 0 40 17 0 -1 40 -25 1 0 21 -10 0 0 14 36 0
0 43 7 0 -1 16 -9 1 0 49 -6 1 z"/>
<path d="M406 1017 l-1 -1 0 -110 -37 0 0 -62 37 0 0 -27 42 0 0 -33 -14 -13
0 -27 84 -1 1 -70 -42 0 0 -117 42 0 -1 -65 -11 -1 0 -17 21 1 1 110 37 0 0
62 -37 0 -1 78 1 12 10 1 0 16 -94 1 -1 10 14 15 -1 154 -41 1 0 66 11 0 -1
16 z"/>
<path d="M695 1017 l-1 -1 0 -110 -38 0 1 -61 37 -1 0 -27 43 0 0 -63 -11 -1
-1 -16 22 0 0 197 -43 0 0 66 12 0 -1 16 z"/>
<path d="M985 1017 l-1 -1 0 -110 -37 0 0 -62 37 0 1 -26 41 -1 0 -63 -10 -1
0 -16 20 0 0 196 -42 1 1 65 11 1 -1 16 z"/>
<path d="M1274 1017 l-1 -1 0 -110 -37 0 -1 -5 1 -56 37 -1 1 -26 41 -1 0 -63
-11 0 0 -17 22 0 -1 196 -42 1 0 66 12 0 0 17 z"/>
<path d="M1564 1017 l-1 -3 -1 -107 -34 -1 -2 -2 0 -60 37 0 1 -26 41 -1 0
-63 -11 0 -1 -3 0 -11 1 -3 21 0 0 197 -42 0 0 66 12 0 -1 16 z"/>
<path d="M1992 991 l-1 -1 0 -16 9 -1 1 -155 -9 -1 0 -15 16 0 1 184 -1 5 z"/>
<path d="M872 939 l-1 -1 0 -15 57 0 -1 15 z"/>
<path d="M1161 939 l-1 -3 1 -12 56 -1 -1 15 z"/>
<path d="M1451 939 l-1 -3 1 -12 56 0 0 14 z"/>
<path d="M581 938 l0 -15 57 0 0 15 z"/>
<path d="M250 912 l1 -73 15 0 1 73 z"/>
<path d="M280 912 l0 -73 3 -1 14 0 0 74 z"/>
<path d="M311 912 l1 -73 15 0 1 73 z"/>
<path d="M879 909 l-1 -1 0 -15 50 0 -1 15 z"/>
<path d="M1168 909 l-1 -1 0 -15 50 0 0 15 -3 1 z"/>
<path d="M1458 909 l-1 -1 0 -15 50 1 0 14 z"/>
<path d="M588 908 l0 -15 50 0 0 15 z"/>
<path d="M1781 830 l-5 -1 -1 -4 0 -50 -40 0 -1 -3 0 -18 -6 -1 0 -16 15 0 2
27 70 1 0 21 36 0 0 -42 1 -3 14 0 0 -4 4 -1 0 -34 -38 -1 -1 -113 -42 0 0
-17 2 -1 0 -6 -26 0 0 -50 -13 0 -1 49 -28 1 0 -73 -8 0 -2 -4 0 -11 1 -3 11
0 0 -52 17 0 0 17 -4 0 -1 37 0 15 -6 1 0 65 13 0 0 -50 29 0 0 50 25 1 1 14
46 1 1 8 37 0 0 5 18 0 1 -44 102 -1 1 87 4 1 -1 87 -32 1 0 14 33 0 -1 28
-33 1 0 13 61 1 1 16 -17 0 0 -9 -52 0 0 -29 33 0 0 -14 -33 0 0 -29 30 0 -1
-58 -96 -1 0 -45 -18 0 0 147 -21 0 0 45 -21 0 1 16 5 1 -1 16 z"/>
<path d="M335 801 l0 -50 16 1 0 48 z"/>
<path d="M370 801 l0 -50 17 0 -1 49 z"/>
<path d="M766 754 l-1 -3 1 -194 41 -2 0 -64 -10 -2 0 -15 20 0 1 110 37 0 0
62 -37 0 0 27 -43 0 1 63 11 1 -1 16 z"/>
<path d="M1055 754 l0 -198 42 0 -1 -65 -11 -1 1 -16 20 0 1 110 37 0 0 62
-37 0 -1 26 -41 1 1 63 10 1 0 17 z"/>
<path d="M1344 754 l1 -197 41 -1 0 -65 -11 0 0 -18 21 0 0 108 1 3 37 0 0 62
-38 0 0 27 -42 0 0 64 11 1 0 15 z"/>
<path d="M1634 754 l-1 -5 1 -192 42 -1 -1 -65 -11 -1 1 -16 20 0 1 110 38 0
-1 61 -37 1 0 27 -42 1 0 62 11 1 -1 16 z"/>
<path d="M370 730 l0 -17 4 -1 1 -47 11 0 0 -18 -27 -1 0 -30 7 -1 1 -41 9 -1
0 -62 5 0 0 -90 16 0 0 17 -4 0 0 116 34 0 0 17 -34 0 -1 35 1 3 10 0 0 44 21
0 0 -23 17 0 0 50 -54 0 -1 49 z"/>
<path d="M1774 698 l-37 -1 0 -17 50 0 -1 16 z"/>
<path d="M675 680 l0 -33 -28 0 1 -31 7 -1 0 -42 9 -1 1 -61 4 0 0 -86 1 -4
16 1 0 15 -4 1 0 116 34 0 0 17 -34 0 0 36 0 1 10 1 0 3 0 41 21 0 0 -23 17 0
0 50 z"/>
<path d="M966 680 l0 -31 -2 -2 -26 -1 0 -30 7 -1 0 -40 2 -2 7 -1 1 -61 5 0
0 -90 17 0 0 17 -5 0 0 116 34 0 0 17 -34 0 0 38 11 0 0 44 20 0 0 -23 17 0 0
50 z"/>
<path d="M1255 680 l-1 -1 0 -32 -28 0 0 -31 7 -1 2 -41 8 -2 1 -61 4 0 0 -72
1 -18 17 0 0 17 -5 0 0 116 34 0 1 17 -35 0 0 38 10 1 1 44 19 -1 1 -23 17 0
0 50 z"/>
<path d="M1545 680 l-1 -1 0 -32 -27 -1 0 -30 7 -1 0 -40 2 -2 7 -1 2 -60 4
-1 0 -90 17 0 0 17 -5 0 0 116 34 0 0 17 -33 1 -1 37 11 0 0 45 17 0 3 -1 0
-23 17 0 0 50 z"/>
<path d="M1737 666 l0 -17 35 0 -1 -25 -17 -2 -1 -27 -4 0 0 -17 17 0 0 16 -3
2 1 16 53 2 0 51 z"/>
<path d="M583 597 l1 -16 49 -1 0 17 z"/>
<path d="M874 597 l0 -17 50 0 0 17 z"/>
<path d="M1163 597 l-1 -3 1 -13 49 0 0 15 z"/>
<path d="M1453 597 l0 -17 50 0 0 17 z"/>
<path d="M583 566 l1 -16 56 0 0 15 z"/>
<path d="M874 566 l0 -17 56 1 1 16 z"/>
<path d="M1163 566 l0 -17 56 1 1 16 z"/>
<path d="M1453 566 l0 -17 57 0 0 17 z"/>
<path d="M2215 559 l0 -149 -14 0 0 45 -44 0 0 47 -62 0 1 -211 60 0 1 47 59
0 0 40 13 0 1 -165 31 -1 0 31 -21 0 -1 144 -33 1 0 -40 -25 0 0 9 -24 0 0 78
23 0 0 12 14 0 0 -45 29 0 0 126 23 0 0 31 z"/>
<path d="M1866 519 l1 -97 66 -1 2 -2 43 0 0 45 63 0 0 -42 -4 -1 -1 -6 -15
-1 -2 -27 -15 -1 0 5 -33 0 -1 4 -51 1 -1 8 -17 1 0 -12 -26 0 0 -47 -55 -1
-1 -66 51 0 1 -10 17 0 0 112 13 0 1 -21 13 -1 0 -27 19 -20 1 -105 172 1 0
56 -155 1 0 14 95 0 -1 56 -118 1 0 36 -9 0 0 14 41 -1 1 -35 50 0 0 19 50 0
0 45 -5 1 -3 1 0 6 -2 0 0 42 7 0 0 19 -17 0 0 -9 -63 0 0 45 z"/>
<path d="M1754 492 l1 -66 1 -5 14 1 1 70 z"/>
<path d="M846 491 l-1 -3 1 -14 11 -1 1 -51 16 -1 0 17 -4 1 -1 51 -6 1 z"/>
<path d="M1135 491 l-1 -1 0 -14 1 -3 11 0 1 -51 16 -1 0 17 -4 1 -2 51 z"/>
<path d="M1214 491 l-1 -3 1 -14 11 -1 0 -60 1 -82 49 0 1 29 31 1 -1 41 -71
1 -1 87 z"/>
<path d="M1425 491 l-1 -3 1 -14 11 -1 1 -51 16 -1 0 17 -4 0 -1 52 z"/>
<path d="M346 490 l-1 -1 0 -13 1 -3 11 0 1 -139 1 -3 48 0 0 30 31 0 0 41
-70 1 -1 87 z"/>
<path d="M452 490 l0 -161 26 0 -1 16 -5 1 -1 89 11 0 0 55 z"/>
<path d="M555 490 l1 -16 11 -1 0 -52 17 0 0 17 -5 0 0 52 z"/>
<path d="M634 490 l0 -17 12 0 0 -61 1 -81 49 0 0 30 32 0 -1 41 -71 1 0 87 z"/>
<path d="M742 490 l0 -161 26 0 0 17 -7 0 0 89 10 0 0 55 z"/>
<path d="M925 490 l-1 -1 0 -13 1 -3 11 0 1 -140 1 -2 48 0 1 29 31 1 -1 41
-71 1 0 87 z"/>
<path d="M1031 490 l1 -160 26 -1 -1 16 -6 1 0 89 10 0 0 55 z"/>
<path d="M1320 490 l0 -158 1 -3 26 0 0 17 -7 0 0 89 9 1 1 54 z"/>
<path d="M1504 490 l-1 -1 0 -13 1 -3 11 0 1 -139 1 -3 48 0 1 29 31 1 0 42
-72 0 0 87 z"/>
<path d="M1610 490 l0 -161 26 0 0 17 -6 0 0 89 10 0 0 55 z"/>
<path d="M1836 445 l-1 -1 0 -69 1 -4 16 1 1 73 z"/>
<path d="M497 443 l-1 -49 -4 -1 1 -97 119 -1 0 108 -63 0 0 35 -24 0 0 5 z"/>
<path d="M788 443 l-1 -3 -1 -46 -4 -1 0 -98 120 1 0 106 -63 1 0 35 -23 1 -1
4 z"/>
<path d="M1076 443 l0 -50 -5 0 1 -97 119 0 0 106 -63 1 0 35 -23 1 -1 4 z"/>
<path d="M1365 443 l0 -50 -5 0 1 -97 120 0 0 106 -63 1 0 35 -24 0 0 5 z"/>
<path d="M1655 443 l0 -47 -1 -3 -4 0 1 -97 119 0 0 106 -63 1 0 35 -23 0 0 5
z"/>
<path d="M1841 251 l-1 -1 0 -14 -93 -1 0 -110 216 -1 1 -34 8 -2 1 -21 83 0
0 29 -28 0 0 14 56 0 0 29 -61 0 0 14 40 0 -1 28 -141 1 -1 68 z M2055 174 l0
-14 -39 -1 -1 -23 1 -5 51 0 0 -13 -46 -1 -1 -28 27 -1 1 -13 -67 0 -1 97 1 2
z"/>
<path d="M375 113 l-1 -35 -34 -1 0 -12 46 0 0 48 z"/>
<path d="M351 101 l0 -12 12 0 0 12 z"/>
<path d="M1826 91 l0 -15 2 -2 71 1 1 16 -17 0 0 -4 -40 0 0 4 z"/>
</g><g id="Poly" style="opacity:0.5;fill:#ff8080">
<path d="M1779 1297 l-21 -23 0 -29 24 -23 143 0 0 -4 15 0 0 15 -157 0 -15
18 0 19 14 15 23 2 0 9 z"/>
<path d="M1812 1192 l0 -119 -17 1 -1 71 -31 0 -1 -71 -18 -1 0 -9 28 0 1 71
11 0 1 -71 35 0 0 113 6 1 1 14 z"/>
<path d="M332 1174 l1 -109 33 -1 0 11 -24 0 0 90 12 -1 1 -57 31 0 1 57 11 0
1 -57 32 0 1 57 16 1 0 9 -27 0 0 -58 -12 0 0 58 -32 0 -1 -57 -11 0 -1 57 z"/>
<path d="M623 1174 l0 -110 34 0 0 10 -23 1 -1 90 12 -1 1 -57 31 1 2 56 11 0
1 -57 31 0 0 58 18 0 0 9 -27 0 0 -58 -12 1 -1 57 -32 0 0 -58 -12 1 -1 57 z"/>
<path d="M912 1174 l-1 -1 0 -109 34 0 0 10 -23 1 0 89 10 1 2 -2 0 -56 31 0
0 56 2 2 10 0 2 -2 0 -56 31 0 1 57 16 1 0 9 -26 0 0 -58 -13 0 -1 57 -31 1 0
-58 -12 1 -1 57 z"/>
<path d="M1198 1174 l0 -110 34 0 0 10 -24 1 -1 89 5 1 7 -1 1 -57 32 0 1 57
7 1 5 -1 0 -57 31 0 0 54 2 4 16 0 0 9 -26 -1 -1 -57 -13 0 0 58 -31 0 -1 -57
-12 0 -1 57 z"/>
<path d="M1492 1174 l-2 -1 0 -109 34 0 0 10 -24 1 0 88 12 0 1 -57 31 0 1 57
12 1 1 -57 30 0 1 57 17 0 -1 9 -24 0 -1 -57 -4 -1 -7 0 -3 1 0 58 -30 -1 -1
-56 -2 -2 -9 0 -2 2 -1 56 z"/>
<path d="M547 1165 l0 -55 -9 -8 0 -38 15 0 -1 10 -5 1 0 20 9 10 0 60 z"/>
<path d="M839 1164 l0 -55 -8 -7 0 -25 -3 -3 0 -10 15 0 0 10 -3 1 0 22 9 10
0 57 z"/>
<path d="M1126 1164 l0 -55 -9 -8 0 -37 14 0 0 10 -4 1 -1 22 9 10 0 57 z"/>
<path d="M1416 1164 l0 -55 -9 -10 0 -35 15 0 -1 9 -4 2 -1 20 9 11 0 58 z"/>
<path d="M1705 1164 l0 -56 -9 -8 0 -36 15 0 0 10 -6 0 0 21 9 8 0 61 z"/>
<path d="M1939 1157 l0 -65 -13 0 0 6 -15 0 0 -16 37 0 0 1 2 64 7 1 5 -1 0
-65 31 1 2 64 19 1 0 9 -30 0 0 -65 -12 1 -1 64 z"/>
<path d="M510 1135 l0 -25 5 -4 0 -31 -5 -1 0 -14 14 0 1 49 -5 4 0 22 z"/>
<path d="M803 1135 l0 -25 5 -7 0 -18 -5 -10 -4 -1 0 -15 16 0 0 20 2 0 0 29
-5 6 0 21 z"/>
<path d="M1090 1134 l0 -26 4 -3 0 -31 -5 0 0 -15 14 0 1 3 0 46 -5 5 0 21 z"/>
<path d="M1379 1134 l0 -26 5 -4 -1 -29 -5 -1 0 -15 15 0 0 48 -5 7 0 20 z"/>
<path d="M1669 1134 l-1 -1 0 -23 5 -7 0 -29 -5 0 -1 -3 0 -12 15 0 0 50 -4 3
0 19 -1 3 z"/>
<path d="M1831 1125 l-1 -88 -13 -1 0 -10 15 -1 1 -4 93 0 0 9 -84 1 0 84 79
1 0 9 z"/>
<path d="M490 1103 l-1 -60 -61 0 -1 38 -48 0 1 -9 38 -1 0 -39 81 0 0 47 1
24 z"/>
<path d="M779 1103 l-1 -61 -58 0 -1 38 -49 0 1 -8 37 -1 2 -2 0 -37 77 0 0
56 4 1 0 13 z"/>
<path d="M1070 1103 l-1 -3 -1 -58 -61 -1 0 39 -49 0 0 -9 39 0 0 -39 81 0 1
68 -2 3 z"/>
<path d="M1356 1103 l-1 -61 -61 0 -1 38 -48 0 0 -9 38 -1 1 -38 83 0 1 68 -1
3 z"/>
<path d="M1648 1102 l-1 -1 0 -60 -61 1 -1 38 -47 0 0 -9 37 -1 1 -38 80 0 0
55 2 0 0 9 -1 6 z"/>
<path d="M1873 1088 l-1 -18 -20 -1 0 -10 31 0 1 6 9 1 0 22 z"/>
<path d="M561 1053 l0 -29 23 0 1 -13 0 -5 0 -6 12 0 0 37 -13 1 -1 15 z"/>
<path d="M851 1053 l0 -29 25 -1 1 -23 13 0 0 36 -11 0 -3 1 0 16 z"/>
<path d="M1140 1053 l1 -29 22 -2 1 -22 12 0 0 36 -13 1 -1 16 z"/>
<path d="M1431 1053 l-1 -3 1 -26 23 -1 0 -23 12 0 1 4 0 32 -14 1 -1 16 z"/>
<path d="M1720 1053 l-1 -1 0 -29 23 0 1 -3 0 -20 12 0 0 36 -13 1 -2 15 z"/>
<path d="M349 1046 l0 -24 24 0 2 -2 0 -20 12 0 0 34 -12 0 -2 4 0 8 z"/>
<path d="M640 1046 l0 -24 25 -1 1 -21 12 1 1 33 -14 0 -1 3 0 9 z"/>
<path d="M928 1046 l0 -25 25 -1 1 -20 12 1 1 33 -14 1 -1 11 z"/>
<path d="M1215 1046 l-1 -1 0 -20 1 -4 25 0 0 -21 13 0 0 34 -14 0 0 12 z"/>
<path d="M1508 1046 l-1 -1 0 -24 25 -1 1 -20 12 0 0 36 -13 1 -2 8 z"/>
<path d="M1767 1038 l1 -21 22 -2 2 -29 11 0 0 39 -10 2 -1 11 z"/>
<path d="M424 1015 l-1 -25 -23 -1 1 -47 22 -1 0 33 14 0 0 41 z"/>
<path d="M713 1015 l0 -26 -23 0 0 -48 22 0 0 33 14 0 0 41 z"/>
<path d="M1003 1015 l0 -26 -23 0 0 -48 22 0 1 32 13 1 0 41 z"/>
<path d="M1292 1015 l0 -26 -23 0 0 -48 22 0 1 32 13 1 -1 40 z"/>
<path d="M1582 1015 l0 -26 -23 0 0 -49 21 0 1 32 12 2 1 41 z"/>
<path d="M1926 1001 l-1 -1 0 -15 4 -1 0 -18 -23 -1 1 -29 29 -1 1 -4 22 0 0
48 -20 1 -2 20 z"/>
<path d="M1985 989 l-1 -1 0 -31 11 -1 1 -134 20 0 0 145 -18 1 -1 21 z"/>
<path d="M478 987 l0 -73 -3 -1 -39 0 -9 8 -26 -1 0 -8 22 -1 6 -7 49 0 0 -48
-11 -10 -37 0 -8 -7 -22 0 0 -9 28 0 6 7 40 0 14 15 1 118 4 2 0 15 z"/>
<path d="M768 987 l-1 -73 -43 -1 -6 7 -28 0 0 -9 23 0 6 -7 48 -1 0 -47 -9
-10 -38 0 -9 -7 -21 0 0 -9 25 0 8 7 39 0 16 17 0 117 5 2 -1 13 z"/>
<path d="M1057 986 l0 -73 -44 0 -6 7 -27 0 0 -9 22 0 6 -7 49 0 0 -48 -11
-11 -37 0 -8 -7 -21 0 0 -9 26 0 8 7 36 0 17 17 0 117 5 2 0 14 z"/>
<path d="M1346 986 l0 -73 -44 0 -8 7 -25 0 0 -9 22 0 6 -7 48 -1 1 -50 -9 -8
-38 0 -9 -7 -21 0 0 -9 26 0 7 7 38 0 16 17 1 117 4 1 0 15 z"/>
<path d="M1636 986 l-1 -72 -45 -1 -6 7 -25 0 0 -9 21 0 6 -7 44 0 6 -1 0 -48
-11 -10 -38 0 -6 -7 -22 0 0 -9 26 0 6 7 38 0 17 18 0 116 4 1 0 15 z"/>
<path d="M1814 973 l0 -16 15 0 0 4 1 3 26 0 0 -32 10 -9 0 -16 9 0 0 20 -9 8
-1 37 z"/>
<path d="M521 963 l0 -15 6 0 0 -36 9 0 1 41 27 1 0 9 z"/>
<path d="M811 963 l0 -15 5 -1 1 -35 9 0 1 41 27 1 0 9 z"/>
<path d="M1101 963 l-1 -1 0 -14 5 -1 1 -35 9 0 1 41 27 1 0 9 z"/>
<path d="M1390 963 l0 -15 6 -1 0 -35 9 0 0 41 3 1 25 0 -1 8 z"/>
<path d="M1679 962 l1 -14 5 -1 0 -35 9 0 0 41 28 0 0 9 z"/>
<path d="M609 944 l0 -56 10 -11 0 -88 14 1 1 14 -4 1 -2 76 -10 10 0 53 z"/>
<path d="M900 944 l0 -58 9 -8 0 -89 15 0 0 15 -4 1 -1 76 -10 9 -1 53 z"/>
<path d="M1189 944 l0 -58 9 -8 0 -89 15 0 0 15 -4 1 -1 75 -11 11 0 53 z"/>
<path d="M1480 944 l-1 -1 0 -58 9 -8 0 -88 15 0 0 15 -4 1 -1 76 -10 10 0 52
-3 1 z"/>
<path d="M1970 941 l0 -20 -11 -12 0 -18 -7 -6 0 -16 9 0 0 10 8 9 0 16 11 13
1 7 4 2 0 15 z"/>
<path d="M574 937 l-1 -40 -37 -2 0 -8 37 -2 1 -6 9 0 12 -13 0 -33 -5 0 0
-15 15 0 0 53 -16 16 -4 1 -1 33 3 1 0 15 z"/>
<path d="M635 937 l0 -15 34 0 1 -35 36 -1 3 -4 45 0 0 9 -39 0 -3 4 -32 1 -1
36 -32 0 -2 5 z"/>
<path d="M864 937 l0 -41 -1 0 -37 -2 0 -7 37 -2 1 0 0 -6 8 0 13 -14 0 -32
-4 -1 0 -13 14 -1 0 54 -16 15 -4 1 -1 32 3 2 0 15 z"/>
<path d="M926 937 l0 -15 33 -1 1 -35 36 0 4 -5 43 1 1 8 -39 0 -6 5 -29 1 -1
36 -32 1 -1 4 z"/>
<path d="M1153 937 l0 -42 -38 0 0 -9 38 0 0 -7 9 0 12 -13 0 -33 -4 -1 0 -14
14 0 0 53 -15 16 -5 1 -1 32 3 3 -1 13 z"/>
<path d="M1215 937 l0 -15 31 0 3 -1 0 -35 33 0 6 -5 44 1 1 8 -41 0 -6 5 -28
0 -1 3 0 34 -32 0 -1 4 z"/>
<path d="M1443 936 l0 -41 -39 0 0 -9 39 0 0 -7 10 0 11 -12 0 -35 -4 0 0 -15
14 1 1 51 -17 18 -4 1 -1 32 3 2 0 14 z"/>
<path d="M1506 936 l-1 -1 0 -14 33 -1 1 -34 34 0 4 -5 45 1 0 7 -41 2 -4 4
-29 0 -1 36 -32 1 -1 4 z"/>
<path d="M501 935 l0 -57 24 -24 56 1 0 8 -53 1 -16 17 -1 53 z"/>
<path d="M791 935 l0 -57 23 -24 58 0 0 9 -52 0 -19 19 0 53 z"/>
<path d="M1081 934 l-1 -1 0 -55 23 -24 58 0 0 9 -54 0 -16 17 0 54 z"/>
<path d="M1370 934 l0 -58 23 -22 58 0 0 9 -55 0 -16 17 0 54 z"/>
<path d="M1659 934 l0 -58 23 -22 31 0 2 -2 0 -16 9 0 -1 26 -37 1 -17 16 0
55 z"/>
<path d="M1739 923 l0 -28 -45 -1 -1 -8 45 -1 1 -48 -4 -1 -1 -14 15 0 0 89 1
3 84 0 0 9 z"/>
<path d="M1930 917 l-1 -21 -54 -1 0 -9 63 0 0 16 2 0 0 15 z"/>
<path d="M636 909 l-1 -1 0 -14 7 -1 0 -39 66 0 6 5 40 0 0 9 -45 0 -6 -5 -49
1 -1 1 -1 42 -2 2 z"/>
<path d="M926 908 l0 -15 6 0 1 -3 0 -36 65 0 6 5 40 0 0 9 -47 0 -4 -5 -49 1
-1 44 z"/>
<path d="M1215 908 l-1 -3 1 -11 6 -1 1 -38 64 -1 7 5 40 0 0 9 -46 0 -4 -5
-51 0 0 45 z"/>
<path d="M1505 908 l0 -15 6 -1 1 -38 65 0 6 5 40 0 -1 8 -43 1 -6 -5 -50 1
-1 44 z"/>
<path d="M349 896 l0 -81 14 -16 8 0 1 -2 15 0 0 12 -19 0 -9 10 0 67 3 1 52
0 7 -5 44 0 0 9 -40 0 -8 5 z"/>
<path d="M1763 895 l0 -86 -6 -1 0 -15 13 1 2 91 92 1 0 9 z"/>
<path d="M421 869 l-4 -5 -38 0 0 -26 -7 0 0 -15 16 0 0 27 2 5 31 0 3 4 41 0
-1 9 z"/>
<path d="M1867 861 l-1 -1 0 -9 51 0 6 -7 0 -11 14 1 1 15 -5 0 -11 12 z"/>
<path d="M1788 856 l-1 -1 0 -59 10 -11 0 -27 9 0 0 34 -9 8 0 45 41 -1 1 -6
8 0 8 -9 57 0 0 9 -52 0 -6 7 0 11 z"/>
<path d="M516 842 l0 -48 48 0 0 -28 15 0 0 15 -4 0 0 23 -46 0 -3 1 0 37 z"/>
<path d="M806 842 l0 -61 -5 -1 -1 -14 15 0 0 76 z"/>
<path d="M1096 842 l0 -59 -1 -3 -5 0 0 -14 14 0 0 76 z"/>
<path d="M1386 842 l-1 -3 -1 -58 -5 -1 0 -15 15 0 0 77 z"/>
<path d="M1675 842 l-1 -1 0 -61 -5 -1 0 -13 14 -1 1 5 -1 71 z"/>
<path d="M1820 835 l-1 -1 0 -37 2 -1 0 -31 15 0 0 15 -5 0 -1 4 0 17 -2 2 -1
31 z"/>
<path d="M1949 832 l0 -33 -7 -6 0 -118 24 0 0 15 -13 1 -1 99 6 5 0 37 z"/>
<path d="M732 809 l0 -40 -14 0 0 -32 13 0 0 21 22 1 1 50 z"/>
<path d="M1022 809 l-1 -40 -13 -1 0 -31 12 0 1 20 23 1 -1 50 z"/>
<path d="M1311 809 l-1 -40 -13 -1 0 -31 12 0 1 20 23 1 -1 50 z"/>
<path d="M1602 809 l-1 -3 -1 -37 -13 -1 0 -31 12 0 1 20 22 2 0 49 z"/>
<path d="M419 804 l0 -23 -89 0 0 -9 100 0 0 17 13 0 0 15 z"/>
<path d="M1871 804 l-2 -3 -22 0 0 -29 23 0 1 -13 18 -1 -1 -27 -22 -1 0 -24
24 0 1 10 8 2 1 18 4 1 2 20 15 1 0 22 -27 1 -1 23 z"/>
<path d="M1963 785 l0 -84 53 0 0 37 3 1 18 0 0 15 -20 1 -1 30 z"/>
<path d="M1751 780 l0 -43 15 0 1 20 4 1 -1 21 z"/>
<path d="M489 769 l-1 -9 -38 -2 0 -20 50 -1 1 21 28 1 7 -1 0 -27 -23 0 0
-51 22 0 1 40 13 1 0 48 z"/>
<path d="M784 752 l0 -21 -24 0 1 -50 21 0 1 39 13 1 1 31 z"/>
<path d="M1073 752 l-1 -21 -22 -1 0 -50 22 0 0 40 13 1 1 31 z"/>
<path d="M1363 752 l-1 -20 -1 -2 -22 0 0 -50 22 0 1 39 13 1 0 32 z"/>
<path d="M1652 752 l-1 -21 -22 -1 0 -50 21 1 2 38 13 1 -1 31 z"/>
<path d="M365 729 l0 -5 -35 0 0 -102 27 -28 43 0 0 9 -40 0 -20 21 0 87 1 3
34 0 0 15 z"/>
<path d="M487 724 l-1 -4 -69 -1 0 -42 -6 -7 0 -23 9 0 0 18 6 8 1 35 75 1 0
15 z"/>
<path d="M694 724 l0 -15 5 -1 1 -61 9 0 0 77 z"/>
<path d="M984 723 l0 -14 6 -1 0 -61 9 0 0 76 z"/>
<path d="M1273 723 l0 -15 6 0 0 -61 9 0 0 76 z"/>
<path d="M1563 723 l0 -15 5 -1 1 -60 9 0 0 76 z"/>
<path d="M1758 723 l0 -81 9 0 1 65 5 1 0 15 z"/>
<path d="M590 700 l0 -15 5 0 0 -77 6 -5 5 -6 0 -54 9 0 0 58 -10 11 0 88 z"/>
<path d="M881 700 l-1 -3 1 -11 4 -1 0 -75 11 -13 0 -54 9 0 0 57 -10 11 0 89
z"/>
<path d="M1170 700 l0 -15 4 0 0 -76 11 -12 0 -54 9 0 0 59 -9 8 -2 89 z"/>
<path d="M1460 699 l0 -14 4 -1 0 -76 11 -11 0 -54 9 0 0 58 -9 10 -1 88 z"/>
<path d="M1732 695 l0 -5 -27 0 -1 -55 -33 -1 -3 -4 -39 0 0 -10 43 0 6 5 36
0 0 54 3 1 25 0 0 15 z"/>
<path d="M1784 695 l0 -15 3 -1 1 -52 37 -1 0 10 -28 0 -1 58 z"/>
<path d="M1980 690 l-1 -25 -62 -1 -1 4 0 13 -51 0 0 -70 -1 -3 -11 0 -2 2 0
70 -25 0 0 -9 16 0 1 -71 31 -1 0 72 32 0 1 -17 83 -1 0 21 5 1 0 15 z"/>
<path d="M2015 690 l0 -15 71 0 0 15 z"/>
<path d="M620 672 l-1 -1 0 -52 15 -17 5 -1 1 -34 -3 -3 1 -13 12 -1 1 43 38
1 0 9 -39 0 0 7 -9 0 -12 13 1 33 4 1 -1 14 z"/>
<path d="M909 671 l0 -53 17 -16 3 -1 1 -36 -2 0 0 -15 12 0 0 42 2 2 37 0 0
8 -1 0 -37 2 -1 6 -9 0 -12 12 0 34 5 1 0 14 z"/>
<path d="M1198 671 l0 -55 15 -14 5 -1 1 -36 -2 0 0 -15 12 0 0 43 3 1 36 0 0
8 -36 0 -3 1 0 7 -9 0 -12 11 0 35 4 2 0 12 z"/>
<path d="M1488 671 l0 -54 13 -15 7 -1 1 -36 -2 0 0 -15 12 0 1 42 37 2 1 8
-40 1 -1 6 -6 0 -13 13 0 33 5 2 0 14 z"/>
<path d="M1730 664 l-1 -61 -51 -1 -6 5 -43 0 0 -9 39 0 4 -5 66 0 0 55 4 1 0
15 z"/>
<path d="M506 660 l-6 -7 -40 0 -13 -14 0 -121 -4 -1 0 -13 14 -1 1 72 44 1 6
-7 27 0 0 9 -23 0 -6 7 -47 0 -2 4 0 46 10 9 37 0 6 7 25 0 0 9 z"/>
<path d="M797 660 l-6 -7 -41 0 -13 -14 0 -121 -5 -1 0 -14 15 0 1 72 43 1 7
-7 27 0 0 9 -23 0 -7 7 -47 1 -1 50 9 8 38 0 7 7 24 0 -1 8 z"/>
<path d="M1086 659 l-6 -7 -42 0 -11 -13 -1 -121 -4 -1 1 -14 13 0 2 72 42 1
6 -7 28 0 -1 8 -23 1 -6 7 -47 0 0 52 7 6 39 0 7 8 24 0 0 8 z"/>
<path d="M1373 659 l-6 -7 -40 0 -11 -12 0 -120 -1 -3 -4 0 0 -15 14 0 0 70 2
4 43 0 6 -7 27 0 0 8 -23 1 -8 7 -46 0 0 52 7 6 21 0 19 2 7 6 23 1 1 7 z"/>
<path d="M1665 659 l-6 -7 -42 0 -8 -9 -4 -5 0 -121 -4 0 0 -15 14 0 1 72 41
1 8 -7 27 1 1 8 -23 0 -8 7 -46 2 -1 49 8 8 39 0 6 7 25 0 0 9 z"/>
<path d="M1899 636 l-5 -1 1 -26 63 -1 0 -29 -64 0 0 -14 -1 0 -50 -2 0 -13
14 -1 1 4 35 1 3 -3 88 1 0 83 z"/>
<path d="M353 635 l0 -9 52 0 19 -20 0 -51 10 0 0 56 -23 24 z"/>
<path d="M514 635 l-4 -5 -39 0 0 -9 43 0 4 5 53 0 0 -45 18 0 0 15 -7 0 0 39
z"/>
<path d="M642 635 l0 -9 52 0 19 -20 0 -51 10 1 1 54 -24 25 z"/>
<path d="M804 635 l-4 -5 -39 -1 0 -7 44 -1 4 5 51 0 2 -2 0 -43 17 0 0 15 -7
0 0 39 z"/>
<path d="M933 635 l-1 -1 0 -8 54 0 17 -18 0 -53 10 0 0 56 -22 24 z"/>
<path d="M1222 635 l-1 -1 0 -5 1 -3 51 0 6 -6 13 -14 0 -51 10 0 0 55 -25 25
z"/>
<path d="M1381 635 l-3 -5 -39 0 0 -9 42 0 6 4 53 -1 1 -44 16 1 0 13 -5 2 -1
39 z"/>
<path d="M1091 634 l-3 -4 -38 0 0 -9 42 0 6 5 51 0 2 -2 0 -43 16 1 1 13 -6
1 -1 38 z"/>
<path d="M1512 634 l0 -9 51 0 19 -20 0 -51 10 0 0 55 -25 25 z"/>
<path d="M1749 628 l0 -27 23 0 0 -32 -54 0 0 -54 -11 -1 -1 -59 11 0 3 -1 0
-11 24 0 0 24 -24 1 0 26 20 1 0 4 1 0 38 2 1 108 -10 0 -2 2 0 17 z"/>
<path d="M471 608 l0 -9 40 0 6 -5 28 -1 1 -38 32 0 0 -5 11 0 0 15 -34 0 0
38 -35 0 -4 5 z"/>
<path d="M761 607 l-1 -3 1 -5 40 -1 5 -4 29 -1 1 -38 32 -1 1 -4 10 0 0 15
-34 0 0 38 -36 0 -3 4 z"/>
<path d="M1050 607 l0 -9 40 0 4 -3 30 -2 1 -38 30 0 3 -1 0 -4 10 0 -1 14
-33 1 0 37 -34 0 -6 5 z"/>
<path d="M1339 607 l0 -9 40 0 3 -4 29 0 4 -2 0 -38 32 0 1 -4 10 0 0 14 -33
1 -1 37 -36 0 -4 5 z"/>
<path d="M1811 593 l0 -70 260 0 0 -9 15 0 -1 19 -265 1 -1 58 z"/>
<path d="M399 577 l0 -41 -28 0 0 -10 43 0 0 15 -4 0 -2 2 0 34 z"/>
<path d="M688 577 l-1 -41 -27 -1 0 -9 43 0 0 15 -5 0 -1 3 0 33 z"/>
<path d="M980 577 l-1 -1 0 -38 -1 -3 -28 0 0 -9 43 0 0 15 -5 0 0 1 -2 34 z"/>
<path d="M1267 576 l0 -41 -28 0 0 -9 43 0 0 15 -5 1 -1 34 z"/>
<path d="M1557 576 l0 -41 -27 -1 -1 -8 43 0 -1 14 -4 2 -1 34 z"/>
<path d="M514 549 l-1 -3 -1 -30 -13 -1 0 -41 12 1 1 25 23 0 -1 48 z"/>
<path d="M803 548 l-1 -32 -13 -1 0 -41 12 0 1 25 23 1 0 48 z"/>
<path d="M1092 548 l0 -33 -14 0 0 -41 12 0 1 25 22 2 0 46 z"/>
<path d="M1382 548 l-1 -32 -13 -2 -1 -40 12 0 0 22 2 4 22 0 0 48 z"/>
<path d="M1671 548 l0 -33 -14 0 1 -41 10 0 1 23 2 3 22 0 -1 47 z"/>
<path d="M2010 512 l-1 -6 -122 -1 0 -72 56 0 6 -5 35 1 1 26 -33 0 -6 5 -31
1 0 16 70 1 0 15 2 2 31 0 1 2 6 0 0 15 z"/>
<path d="M1787 493 l-1 -1 0 -218 14 1 1 13 -5 2 1 187 4 1 0 15 z"/>
<path d="M2036 491 l-11 -12 -17 0 0 -22 17 0 2 -2 0 -10 8 -1 1 -16 22 0 0
30 -21 0 1 19 20 1 0 13 z"/>
<path d="M338 489 l0 -36 13 -1 2 -15 21 -1 0 30 -23 0 0 23 z"/>
<path d="M548 489 l0 -36 13 -1 1 -8 24 0 0 24 -25 0 -1 3 0 18 z"/>
<path d="M627 489 l0 -36 13 -1 2 -15 20 0 1 28 -22 0 -2 2 0 22 z"/>
<path d="M838 489 l0 -34 14 0 0 -12 25 0 -1 24 -25 1 0 21 z"/>
<path d="M917 489 l0 -36 13 -1 1 -16 22 0 0 29 -23 0 -1 23 z"/>
<path d="M1127 489 l0 -34 14 0 0 -12 24 0 0 24 -25 0 -1 6 0 16 z"/>
<path d="M1206 489 l0 -36 13 -1 1 -16 22 0 0 29 -23 0 -1 4 0 20 z"/>
<path d="M1417 488 l0 -33 14 0 0 -12 24 0 0 24 -25 1 -1 20 z"/>
<path d="M1496 488 l1 -35 13 -1 1 -15 21 -1 0 29 -23 0 0 23 z"/>
<path d="M2138 481 l-22 -24 0 -27 22 -23 24 -1 0 -21 -24 -2 -22 -23 0 -28
23 -22 53 0 2 -3 -1 -69 -51 -1 0 -15 15 0 0 4 47 0 0 94 -62 0 -16 17 0 19
18 18 29 0 0 43 -30 0 -17 17 0 19 17 18 21 0 0 10 z"/>
<path d="M437 457 l-1 -3 -1 -65 1 -2 10 0 0 61 62 0 0 -39 48 0 0 9 -38 1 -1
38 z"/>
<path d="M726 457 l0 -48 -1 -22 10 0 1 60 61 0 1 -38 48 0 0 9 -38 1 -1 38 z"/>
<path d="M1016 457 l0 -47 -1 -24 10 0 1 61 61 1 0 -39 48 0 0 8 -1 0 -37 2
-1 38 z"/>
<path d="M1306 457 l-1 -3 -1 -68 10 0 1 61 61 0 1 -38 48 0 0 8 -38 1 -2 38
z"/>
<path d="M1595 456 l0 -46 -1 -24 10 0 0 61 62 0 0 -39 48 0 0 9 -37 0 -2 2 0
37 z"/>
<path d="M2003 436 l0 -15 7 0 1 -29 56 0 0 8 -48 2 -1 34 z"/>
<path d="M411 430 l0 -49 4 -4 0 -22 10 0 0 26 -5 4 1 29 5 1 0 15 z"/>
<path d="M700 430 l0 -48 5 -6 0 -21 9 0 0 25 -5 6 1 28 5 1 0 15 z"/>
<path d="M992 429 l-2 -1 0 -48 5 -4 0 -22 8 1 1 23 -5 6 1 30 5 1 0 14 z"/>
<path d="M1279 429 l0 -48 5 -6 0 -21 8 1 0 24 -4 5 1 30 5 1 0 14 z"/>
<path d="M1569 429 l0 -49 5 -7 0 -19 8 1 1 22 -5 6 0 31 5 1 1 14 z"/>
<path d="M382 425 l1 -9 5 -1 0 -23 -9 -8 0 -59 9 0 0 54 10 11 0 35 z"/>
<path d="M569 425 l0 -10 24 -1 0 -89 -9 -1 -4 2 0 56 -7 1 -23 -1 -1 -57 -13
0 0 58 -31 -1 -1 -57 -17 0 1 -9 25 0 1 57 13 0 0 -58 31 0 0 57 4 2 6 0 3 -1
0 -58 31 1 1 109 z"/>
<path d="M672 425 l0 -10 5 0 0 -22 -9 -11 0 -57 9 0 0 55 10 11 0 34 z"/>
<path d="M859 425 l0 -10 24 -1 0 -89 -11 0 -1 57 -32 0 -1 -57 -11 0 -1 57
-31 -1 -1 -57 -17 0 1 -8 25 -1 1 57 12 0 1 -57 31 0 1 57 12 0 1 -57 31 0 0
110 z"/>
<path d="M962 425 l0 -10 5 -1 1 -20 -9 -10 -1 -5 1 -53 8 -1 0 54 10 12 0 34
z"/>
<path d="M1148 425 l0 -10 22 0 3 -1 0 -90 -13 0 0 58 -32 0 0 -58 -12 1 -1
57 -31 0 -1 -57 -17 -1 0 -9 26 1 1 57 13 0 0 -58 31 0 1 57 11 1 2 -2 0 -56
31 0 0 110 z"/>
<path d="M1251 425 l0 -10 4 0 2 -2 0 -18 -10 -9 1 -60 7 0 1 54 10 11 -1 33
z"/>
<path d="M1438 424 l0 -9 24 -1 1 -90 -13 0 0 58 -32 0 0 -58 -13 0 0 58 -32
0 0 -58 -17 0 0 -9 26 0 1 57 12 0 1 -57 31 0 1 57 12 0 1 -57 31 0 0 109 z"/>
<path d="M1541 424 l0 -9 5 -1 1 -16 -1 -5 -9 -9 1 -59 3 -1 5 1 0 54 9 10 0
35 z"/>
<path d="M1727 424 l0 -17 24 -1 1 -82 -13 0 -1 57 -30 0 -1 -57 -13 0 -1 57
-30 1 -1 -57 -17 -1 0 -9 26 0 0 1 2 56 11 0 1 -57 31 0 0 57 3 1 9 0 2 -2 0
-56 31 0 0 100 -18 1 -1 8 z"/>
<path d="M1977 413 l1 -15 5 -1 0 -54 9 0 0 70 z"/>
<path d="M1903 410 l0 -8 2 -2 19 -1 2 -20 8 -1 -1 -24 -33 -1 -5 4 -1 17 -23
0 0 -23 17 -1 8 -9 46 0 0 36 4 2 8 0 0 22 -18 1 -1 8 z"/>
<path d="M1956 365 l1 -24 0 -28 61 0 0 -13 -61 0 0 -28 9 0 0 17 2 2 60 0 0
31 -58 0 -4 2 0 41 z"/>
<path d="M1814 334 l0 -9 42 0 8 -9 36 -1 1 -6 15 0 0 15 -24 1 -24 0 -8 9 z"/>
<path d="M1814 302 l0 -9 34 0 5 -5 43 0 1 -32 19 -1 0 15 -8 1 -1 26 -52 0
-6 5 z"/>
<path d="M1977 270 l0 -28 48 0 0 -13 -74 0 0 -38 13 0 2 -5 14 0 0 15 -19 1
0 16 73 2 1 31 -48 1 -1 18 z"/>
<path d="M1856 256 l0 -48 18 -1 2 -67 123 -1 0 15 -11 0 -1 3 0 9 -85 0 -1
68 -18 1 0 21 z"/>
<path d="M1767 241 l0 -38 58 -1 0 -14 -58 -1 1 -47 67 -1 1 -35 63 0 0 13
-46 1 0 1 -2 36 -65 1 -2 2 0 10 2 2 56 1 0 48 -55 1 -3 2 0 19 z"/>
<path d="M2010 187 l0 -60 1 -3 4 0 -1 -43 -25 -1 0 -20 74 0 0 21 3 1 18 0 0
15 -21 0 1 48 6 1 0 41 z"/>
<path d="M1937 118 l0 -15 15 0 1 5 34 1 0 9 z"/>
<path d="M365 112 l-1 -23 -23 -1 0 -10 34 0 0 34 z"/>
<path d="M388 112 l0 -47 -47 0 0 -11 58 0 0 58 z"/>
<path d="M1859 92 l0 -34 47 1 0 30 -9 0 -2 -20 -23 0 -1 23 z"/>
</g><g id="Contacts" style="opacity:0.75;fill:#404040">
<path d="M1962 1456 l0 -14 -101 0 -8 -9 0 -122 11 -12 225 0 17 15 0 115 -14
13 -93 1 -1 13 z"/>
<path d="M1741 1314 l0 -105 52 0 -1 7 -18 1 -26 25 0 36 12 13 15 16 18 0 0
7 z"/>
<path d="M1992 1267 l-1 -1 0 -7 8 0 -1 5 -1 3 z"/>
<path d="M1809 1266 l0 -9 7 0 0 9 z"/>
<path d="M1927 1231 l0 -7 7 0 0 7 z"/>
<path d="M1815 1191 l-1 -1 0 -7 7 0 -1 7 z"/>
<path d="M326 1190 l0 -7 110 0 0 7 z"/>
<path d="M617 1190 l-1 -1 0 -6 112 0 0 7 z"/>
<path d="M905 1190 l-1 -1 0 -6 111 0 0 7 z"/>
<path d="M1191 1190 l0 -7 110 0 0 7 z"/>
<path d="M1483 1190 l0 -7 110 0 0 7 z"/>
<path d="M1932 1179 l-1 -5 1 -3 61 1 0 6 z"/>
<path d="M1753 1162 l0 -7 47 0 0 7 z"/>
<path d="M460 1157 l-1 -3 0 -4 11 -1 6 1 0 7 z"/>
<path d="M751 1157 l0 -7 17 0 0 7 z"/>
<path d="M1038 1157 l0 -7 17 0 0 7 z"/>
<path d="M1325 1157 l0 -7 16 0 0 7 z"/>
<path d="M1617 1157 l-1 -4 1 -3 16 0 0 7 z"/>
<path d="M824 1155 l-1 -3 1 -35 5 0 0 37 z"/>
<path d="M1110 1155 l-1 -3 1 -35 6 0 1 38 z"/>
<path d="M1400 1155 l-1 -1 0 -37 7 0 0 38 z"/>
<path d="M1689 1155 l-1 -1 0 -37 7 0 1 4 -1 25 0 9 z"/>
<path d="M531 1154 l0 -38 6 1 1 37 z"/>
<path d="M1854 1143 l-1 -5 1 -2 54 0 0 7 z"/>
<path d="M563 1126 l-1 -1 0 -32 8 0 -1 32 z"/>
<path d="M855 1126 l0 -33 7 0 0 33 z"/>
<path d="M1141 1126 l0 -33 7 0 0 33 z"/>
<path d="M1431 1126 l0 -33 7 0 0 33 z"/>
<path d="M1720 1126 l0 -33 7 0 0 33 z"/>
<path d="M1854 1110 l-1 -4 1 -4 30 1 0 6 z"/>
<path d="M349 1100 l0 -7 33 -1 47 1 0 7 z"/>
<path d="M492 1100 l0 -7 14 0 0 7 z"/>
<path d="M640 1100 l0 -7 81 0 0 7 z"/>
<path d="M784 1100 l0 -7 14 0 0 7 z"/>
<path d="M928 1100 l0 -7 80 0 0 7 z"/>
<path d="M1071 1100 l0 -7 14 0 0 7 z"/>
<path d="M1214 1100 l0 -7 80 0 0 7 z"/>
<path d="M1360 1100 l0 -7 14 0 0 7 z"/>
<path d="M1507 1100 l-1 -4 1 -3 79 0 0 7 z"/>
<path d="M1650 1100 l-1 -5 1 -2 14 0 0 7 z"/>
<path d="M1901 1096 l-1 -3 1 -4 19 -1 -1 7 z"/>
<path d="M2076 1093 l-1 -3 0 -16 1 -5 6 1 0 22 z"/>
<path d="M1854 1079 l-1 -3 0 -9 1 -3 7 1 0 14 z"/>
<path d="M1942 1077 l-1 -1 0 -7 52 1 0 6 z"/>
<path d="M355 1072 l-1 -1 0 -14 7 0 0 14 -4 1 z"/>
<path d="M645 1072 l0 -15 7 0 0 15 z"/>
<path d="M802 1072 l0 -8 7 0 -1 7 z"/>
<path d="M831 1072 l-1 -1 0 -14 7 0 0 15 z"/>
<path d="M933 1072 l0 -15 7 0 -1 14 z"/>
<path d="M1091 1072 l0 -8 7 0 0 8 z"/>
<path d="M1119 1072 l0 -15 7 0 0 15 z"/>
<path d="M1219 1072 l0 -15 7 0 0 15 z"/>
<path d="M1381 1072 l-1 -3 1 -4 6 -1 0 8 z"/>
<path d="M1409 1072 l0 -15 7 0 0 15 z"/>
<path d="M1512 1072 l-1 -3 1 -11 6 0 0 13 z"/>
<path d="M1670 1072 l-1 -3 1 -4 6 0 0 4 0 3 z"/>
<path d="M1698 1072 l0 -15 7 0 0 15 z"/>
<path d="M512 1071 l0 -7 7 0 0 7 z"/>
<path d="M540 1071 l0 -14 7 0 0 14 z"/>
<path d="M1255 1065 l-1 -3 1 -4 9 -1 -1 7 z"/>
<path d="M1547 1065 l-1 -3 1 -4 9 -1 -1 7 z"/>
<path d="M389 1064 l0 -7 10 0 0 7 z"/>
<path d="M680 1064 l1 -6 9 -1 0 7 z"/>
<path d="M968 1064 l0 -7 9 1 1 6 z"/>
<path d="M1754 1058 l-1 -1 0 -7 47 0 0 8 z"/>
<path d="M1882 1048 l0 -7 30 1 1 6 z"/>
<path d="M1819 1034 l-1 -3 0 -8 1 -4 6 1 1 14 z"/>
<path d="M1863 1015 l0 -7 50 0 0 7 z"/>
<path d="M1326 1013 l-4 -2 1 -5 18 -1 0 7 z"/>
<path d="M1444 1013 l-2 -1 0 -7 16 0 -1 7 z"/>
<path d="M1519 1013 l-1 -3 1 -4 18 -1 0 8 z"/>
<path d="M1626 1013 l-11 -2 0 -5 18 -1 0 7 z"/>
<path d="M1732 1013 l-2 -3 1 -5 16 0 -1 7 z"/>
<path d="M361 1012 l0 -7 19 0 0 7 z"/>
<path d="M415 1012 l0 -7 14 0 0 7 z"/>
<path d="M457 1012 l0 -7 19 0 0 7 z"/>
<path d="M573 1012 l0 -7 17 0 -1 6 z"/>
<path d="M652 1012 l0 -7 19 0 0 7 z"/>
<path d="M704 1012 l0 -7 14 0 0 7 z"/>
<path d="M749 1012 l0 -7 19 0 0 7 z"/>
<path d="M865 1012 l1 -6 16 -1 0 7 z"/>
<path d="M940 1012 l0 -7 18 0 1 2 -1 5 z"/>
<path d="M994 1012 l0 -7 14 0 0 7 z"/>
<path d="M1036 1012 l0 -7 19 0 0 7 z"/>
<path d="M1152 1012 l0 -7 16 0 1 2 -1 5 z"/>
<path d="M1226 1012 l0 -7 19 0 0 7 z"/>
<path d="M1283 1012 l-1 -3 1 -4 14 0 0 7 z"/>
<path d="M1572 1012 l1 -6 13 0 1 6 z"/>
<path d="M1781 998 l0 -7 14 0 0 7 z"/>
<path d="M1915 998 l0 -7 14 0 0 7 z"/>
<path d="M1946 998 l0 -7 7 0 0 7 z"/>
<path d="M1989 986 l-1 -3 1 -3 14 -1 0 7 z"/>
<path d="M481 984 l0 -8 6 0 0 3 0 4 z"/>
<path d="M770 984 l0 -7 6 -1 1 1 0 7 z"/>
<path d="M1060 984 l-1 -3 1 -4 5 0 1 7 z"/>
<path d="M1349 984 l-1 -1 0 -6 8 0 0 7 z"/>
<path d="M1638 984 l0 -7 7 0 0 7 z"/>
<path d="M1817 970 l-1 -3 1 -4 6 -1 0 8 z"/>
<path d="M1873 970 l-1 -5 1 -6 7 -1 0 12 z"/>
<path d="M524 960 l0 -7 7 0 0 7 z"/>
<path d="M814 960 l0 -7 7 0 0 7 z"/>
<path d="M1103 960 l-1 -3 1 -3 7 -1 0 7 z"/>
<path d="M1392 960 l0 -7 7 0 0 7 z"/>
<path d="M1682 960 l-1 -3 1 -3 7 -1 0 7 z"/>
<path d="M1781 941 l0 -7 35 0 0 7 z"/>
<path d="M1972 939 l0 -7 8 0 -1 6 z"/>
<path d="M579 934 l0 -7 14 0 0 7 z"/>
<path d="M626 934 l0 -7 14 0 0 7 z"/>
<path d="M869 934 l0 -7 14 0 0 7 z"/>
<path d="M916 934 l0 -7 14 0 0 7 z"/>
<path d="M1158 934 l0 -7 14 0 0 7 z"/>
<path d="M1205 934 l0 -7 14 0 0 7 z"/>
<path d="M1448 934 l0 -7 14 0 0 7 z"/>
<path d="M1495 934 l0 -7 14 0 0 7 z"/>
<path d="M504 932 l0 -8 14 0 0 8 z"/>
<path d="M794 932 l0 -8 14 0 0 8 z"/>
<path d="M1083 932 l-1 -4 1 -4 13 1 1 7 z"/>
<path d="M1372 932 l1 -7 9 -1 4 1 0 7 z"/>
<path d="M1662 932 l-1 -3 1 -4 12 -1 2 4 -1 4 z"/>
<path d="M441 929 l0 -7 11 1 1 6 z"/>
<path d="M730 929 l0 -7 12 0 0 7 z"/>
<path d="M1020 929 l0 -7 11 0 0 7 z"/>
<path d="M1309 929 l-1 -3 1 -3 11 -1 1 7 z"/>
<path d="M1598 929 l0 -7 12 0 0 7 z"/>
<path d="M1932 915 l0 -7 14 0 0 7 z"/>
<path d="M546 913 l1 -7 13 -1 0 8 z"/>
<path d="M836 913 l1 -7 13 -1 0 8 z"/>
<path d="M1125 913 l0 -8 14 0 0 8 z"/>
<path d="M1415 913 l0 -8 11 1 3 0 0 7 z"/>
<path d="M1704 913 l-1 -4 1 -4 10 1 4 0 0 7 z"/>
<path d="M255 908 l0 -7 7 0 0 7 z"/>
<path d="M286 908 l0 -7 7 0 -1 6 z"/>
<path d="M317 908 l-1 -3 1 -3 6 0 0 5 z"/>
<path d="M594 906 l-1 -1 0 -7 7 0 0 8 z"/>
<path d="M626 906 l0 -8 14 0 0 8 z"/>
<path d="M884 906 l-1 -3 1 -4 6 -1 0 8 z"/>
<path d="M917 906 l-1 -3 1 -4 13 -1 0 8 z"/>
<path d="M1172 906 l0 -8 7 0 0 8 z"/>
<path d="M1205 906 l0 -8 14 0 0 8 z"/>
<path d="M1462 906 l0 -8 7 0 0 8 z"/>
<path d="M1495 906 l0 -8 14 0 0 8 z"/>
<path d="M667 880 l-1 -1 0 -7 33 0 0 7 -8 0 z"/>
<path d="M844 880 l-20 -1 1 -6 25 -1 0 7 -3 0 z"/>
<path d="M964 880 l-8 -1 1 -6 32 -1 0 7 -21 0 z"/>
<path d="M1121 880 l-8 -1 0 -7 26 0 -1 7 z"/>
<path d="M1246 880 l-1 -1 0 -7 33 0 0 7 -4 1 z"/>
<path d="M1403 880 l0 -8 26 0 -1 7 z"/>
<path d="M1536 880 l-1 -1 0 -7 33 0 -1 7 z"/>
<path d="M1693 880 l-1 -1 0 -7 26 0 -1 7 z"/>
<path d="M1782 880 l-1 -3 1 -4 69 -1 1 4 -1 3 z"/>
<path d="M1885 880 l-1 -3 1 -4 30 -1 0 8 z"/>
<path d="M377 879 l1 -6 32 -1 0 7 z"/>
<path d="M534 879 l1 -6 25 -1 0 7 z"/>
<path d="M1965 858 l1 -23 5 0 1 23 z"/>
<path d="M497 856 l1 -7 5 0 1 7 z"/>
<path d="M787 856 l0 -7 7 0 0 7 z"/>
<path d="M1076 856 l0 -7 6 1 0 5 z"/>
<path d="M1365 856 l0 -7 7 0 0 7 z"/>
<path d="M1655 856 l-1 -1 0 -6 8 0 -1 6 z"/>
<path d="M255 851 l0 -7 7 0 0 7 z"/>
<path d="M286 851 l-1 -2 1 -5 7 0 0 7 z"/>
<path d="M317 851 l-1 -3 1 -3 6 0 0 5 z"/>
<path d="M1841 851 l0 -7 7 0 0 7 z"/>
<path d="M1925 847 l-1 -3 1 -4 7 -1 -1 7 z"/>
<path d="M376 835 l-1 -1 0 -7 7 0 0 7 z"/>
<path d="M1737 835 l-1 -4 1 -4 7 0 0 6 -2 2 z"/>
<path d="M441 830 l0 -8 10 0 0 8 z"/>
<path d="M535 830 l-1 -3 1 -4 6 -1 0 8 z"/>
<path d="M593 830 l0 -7 2 -1 5 1 0 7 z"/>
<path d="M730 830 l1 -7 8 0 3 0 0 7 z"/>
<path d="M825 830 l-1 -1 0 -6 3 -1 4 0 0 8 z"/>
<path d="M883 830 l0 -7 7 0 0 7 z"/>
<path d="M1020 830 l0 -8 5 0 6 1 0 7 z"/>
<path d="M1114 830 l-1 -1 0 -6 7 0 0 7 z"/>
<path d="M1172 830 l0 -7 7 0 0 7 z"/>
<path d="M1309 830 l-1 -2 1 -4 12 -1 -1 6 z"/>
<path d="M1403 830 l0 -7 7 0 0 7 z"/>
<path d="M1462 830 l0 -7 7 0 0 7 z"/>
<path d="M1599 830 l-1 -3 1 -4 4 -1 7 1 0 7 z"/>
<path d="M1692 830 l0 -7 7 0 0 7 z"/>
<path d="M1802 825 l0 -14 7 0 0 14 z"/>
<path d="M1834 825 l0 -7 7 0 0 7 z"/>
<path d="M1875 823 l0 -7 7 0 0 7 z"/>
<path d="M1996 813 l0 -7 7 0 0 7 z"/>
<path d="M1759 806 l0 -7 7 0 0 7 z"/>
<path d="M376 804 l-1 -1 0 -14 7 0 -1 14 z"/>
<path d="M431 801 l0 -7 7 1 1 6 z"/>
<path d="M621 801 l1 -6 5 -1 2 2 -1 5 z"/>
<path d="M912 801 l-1 -3 1 -3 7 -1 0 7 z"/>
<path d="M1200 801 l0 -7 7 0 0 7 z"/>
<path d="M1490 801 l1 -6 6 -1 0 7 z"/>
<path d="M341 797 l-1 -1 0 -7 7 0 -1 7 z"/>
<path d="M2024 785 l0 -7 7 0 0 7 z"/>
<path d="M568 778 l-1 -3 1 -4 6 -1 0 8 z"/>
<path d="M804 778 l-1 -3 1 -4 6 -1 0 8 z"/>
<path d="M1093 778 l-1 -1 0 -7 7 0 0 8 z"/>
<path d="M1382 778 l-1 -3 1 -4 6 0 1 7 z"/>
<path d="M1671 778 l-1 -4 1 -4 7 0 0 8 z"/>
<path d="M1780 778 l1 -7 6 -1 0 8 z"/>
<path d="M1824 778 l-1 -3 1 -4 6 -1 1 3 -1 5 z"/>
<path d="M340 763 l0 -7 7 0 0 7 z"/>
<path d="M375 763 l0 -7 7 0 0 7 z"/>
<path d="M2025 752 l-1 -3 1 -4 6 -1 0 8 z"/>
<path d="M527 749 l0 -7 14 0 0 7 z"/>
<path d="M723 749 l0 -7 14 0 0 7 z"/>
<path d="M775 749 l0 -7 14 0 0 7 z"/>
<path d="M1013 749 l-1 -4 1 -3 14 0 0 7 z"/>
<path d="M1064 749 l0 -7 14 0 0 7 z"/>
<path d="M1302 749 l-1 -3 1 -3 14 -1 0 7 z"/>
<path d="M1353 749 l0 -7 15 0 0 7 z"/>
<path d="M1591 749 l0 -7 14 0 0 7 z"/>
<path d="M1643 749 l-1 -4 1 -3 14 0 0 7 z"/>
<path d="M1732 749 l0 -7 7 0 0 7 z"/>
<path d="M1753 749 l0 -7 7 0 0 7 z"/>
<path d="M1870 749 l0 -7 8 0 0 7 z"/>
<path d="M1892 749 l-1 -2 1 -5 7 0 0 7 z"/>
<path d="M1922 749 l0 -7 8 0 0 7 z"/>
<path d="M368 725 l0 -7 14 0 0 7 z"/>
<path d="M490 721 l1 -7 6 -1 0 8 z"/>
<path d="M697 721 l1 -7 6 -1 0 8 z"/>
<path d="M987 721 l0 -8 7 0 0 8 z"/>
<path d="M1276 721 l-1 -4 1 -3 7 0 0 7 z"/>
<path d="M1566 721 l-1 -3 1 -5 5 1 2 0 -1 6 z"/>
<path d="M1760 721 l1 -7 5 0 1 7 z"/>
<path d="M593 697 l0 -7 7 0 0 7 z"/>
<path d="M883 697 l0 -7 7 0 0 7 z"/>
<path d="M1172 697 l0 -7 7 0 0 7 z"/>
<path d="M1462 697 l0 -7 7 0 0 7 z"/>
<path d="M1835 697 l0 -7 43 0 0 7 z"/>
<path d="M1734 692 l0 -7 15 0 0 7 z"/>
<path d="M1774 692 l1 -6 13 -1 0 7 z"/>
<path d="M1954 688 l-1 -3 1 -4 6 0 1 6 -4 0 z"/>
<path d="M1983 688 l-1 -1 0 -7 7 0 0 7 -4 1 z"/>
<path d="M2018 688 l-1 -3 1 -4 6 -1 0 8 z"/>
<path d="M2074 688 l-1 -4 1 -4 6 1 0 5 0 2 z"/>
<path d="M396 669 l-3 -1 -2 -2 1 -5 7 0 0 7 z"/>
<path d="M481 669 l0 -8 11 0 0 8 z"/>
<path d="M622 669 l-1 -3 1 -4 6 0 0 6 z"/>
<path d="M681 669 l-1 -3 1 -4 6 0 0 6 z"/>
<path d="M771 669 l-1 -1 0 -7 12 0 -1 7 z"/>
<path d="M912 669 l-1 -3 1 -5 6 1 0 6 z"/>
<path d="M1060 669 l-1 -3 1 -4 11 -1 0 7 z"/>
<path d="M1201 669 l-1 -1 0 -7 7 0 0 7 -4 1 z"/>
<path d="M1260 669 l-1 -3 1 -4 6 -1 0 8 z"/>
<path d="M1349 669 l-1 -4 1 -4 11 0 1 7 -1 1 z"/>
<path d="M1491 669 l-1 -3 1 -4 6 0 0 6 z"/>
<path d="M1550 669 l-1 -1 0 -7 7 0 0 7 z"/>
<path d="M970 668 l1 -6 6 0 1 6 z"/>
<path d="M1638 668 l0 -7 12 0 0 7 z"/>
<path d="M1734 661 l1 -6 14 -1 0 7 z"/>
<path d="M1805 661 l-1 -5 1 -7 0 -4 7 0 0 16 z"/>
<path d="M721 643 l-3 -1 1 -6 6 0 0 6 z"/>
<path d="M1302 643 l-5 -1 0 -7 7 0 0 7 z"/>
<path d="M429 642 l0 -7 7 0 0 7 z"/>
<path d="M1008 642 l0 -7 7 0 0 7 z"/>
<path d="M1587 642 l-1 -2 1 -5 7 0 0 7 z"/>
<path d="M1991 640 l0 -95 7 0 0 3 1 88 -1 4 z"/>
<path d="M373 619 l0 -8 25 1 0 6 z"/>
<path d="M523 619 l0 -8 32 1 0 6 z"/>
<path d="M662 619 l-1 -3 1 -4 25 0 0 6 z"/>
<path d="M813 619 l-1 -2 1 -6 32 1 0 6 z"/>
<path d="M952 619 l0 -8 25 1 0 6 z"/>
<path d="M1102 619 l-1 -3 1 -4 32 -1 0 8 z"/>
<path d="M1241 619 l-1 -3 1 -4 25 -1 0 8 z"/>
<path d="M1391 619 l1 -7 32 -1 0 8 z"/>
<path d="M1531 619 l-1 -3 1 -4 25 -1 0 8 z"/>
<path d="M1681 619 l-1 -3 1 -4 32 -1 0 8 z"/>
<path d="M582 593 l-1 -3 1 -4 13 -1 0 2 0 4 0 2 z"/>
<path d="M622 593 l-1 -3 1 -4 6 0 0 6 z"/>
<path d="M872 593 l-1 -3 1 -4 14 -1 -1 7 z"/>
<path d="M912 593 l-1 -5 1 -3 6 1 0 6 z"/>
<path d="M1161 593 l-1 -3 1 -4 13 -1 0 8 z"/>
<path d="M1201 593 l-1 -3 1 -4 6 -1 0 8 z"/>
<path d="M1451 593 l-1 -3 1 -4 13 -1 0 8 z"/>
<path d="M1491 593 l-1 -3 1 -4 6 0 0 6 z"/>
<path d="M1836 593 l-1 -3 1 -4 41 0 0 6 z"/>
<path d="M1753 590 l0 -7 7 0 0 7 z"/>
<path d="M373 586 l0 -8 14 0 0 7 -2 0 z"/>
<path d="M662 586 l-1 -3 1 -4 14 -1 -1 7 z"/>
<path d="M952 586 l-1 -5 1 -3 14 0 0 7 -3 0 z"/>
<path d="M1241 586 l-1 -3 1 -4 12 -1 2 2 0 5 -4 1 z"/>
<path d="M1530 585 l1 -6 13 0 1 6 z"/>
<path d="M1793 583 l0 -7 7 0 0 7 z"/>
<path d="M771 569 l-1 -1 0 -7 12 0 -1 7 z"/>
<path d="M1060 569 l-1 -3 1 -4 11 -1 0 8 z"/>
<path d="M1349 569 l-1 -3 1 -5 11 0 1 6 -1 2 z"/>
<path d="M481 568 l0 -7 11 0 0 7 z"/>
<path d="M1638 568 l0 -7 12 0 0 7 z"/>
<path d="M415 566 l0 -7 14 0 0 7 z"/>
<path d="M704 566 l0 -7 14 0 0 7 z"/>
<path d="M994 566 l0 -7 14 0 0 7 z"/>
<path d="M1283 566 l0 -7 14 0 0 7 z"/>
<path d="M1573 566 l-1 -4 1 -3 14 0 0 7 z"/>
<path d="M581 561 l1 -6 13 0 0 5 z"/>
<path d="M628 561 l1 -6 13 0 1 6 z"/>
<path d="M871 561 l1 -6 14 -1 0 7 z"/>
<path d="M919 561 l-1 -4 1 -3 14 0 0 7 z"/>
<path d="M1160 561 l1 -6 13 -1 0 7 z"/>
<path d="M1207 561 l1 -6 14 -1 0 7 z"/>
<path d="M1450 561 l1 -6 13 -1 0 7 z"/>
<path d="M1498 561 l-1 -2 1 -5 13 1 1 6 z"/>
<path d="M1844 561 l0 -4 1 -3 7 0 0 7 z"/>
<path d="M2227 547 l-1 -3 1 -3 7 -1 0 7 z"/>
<path d="M403 538 l-1 -3 1 -4 6 -1 0 8 z"/>
<path d="M691 538 l1 -7 6 -1 0 8 z"/>
<path d="M981 538 l0 -8 7 0 0 8 z"/>
<path d="M1270 538 l0 -8 6 1 0 6 z"/>
<path d="M1560 538 l0 -8 6 1 0 6 z"/>
<path d="M2074 526 l-1 -4 1 -4 6 1 0 6 z"/>
<path d="M446 514 l-1 -3 1 -3 7 -1 0 7 z"/>
<path d="M735 514 l0 -7 7 0 0 7 z"/>
<path d="M1025 514 l-1 -1 0 -6 7 1 0 5 z"/>
<path d="M1313 514 l0 -7 8 0 0 7 z"/>
<path d="M1603 514 l0 -7 7 0 0 7 z"/>
<path d="M1870 514 l0 -57 8 0 0 57 z"/>
<path d="M2013 510 l-1 -3 1 -4 6 0 0 6 z"/>
<path d="M2099 497 l1 -201 51 -1 0 8 -19 0 -25 25 0 37 25 28 19 0 0 7 -18 0
-26 26 0 35 5 6 19 23 20 0 0 7 z"/>
<path d="M1759 491 l-1 -1 0 -7 7 0 -1 7 z"/>
<path d="M1789 491 l-1 -3 1 -4 6 -1 0 8 z"/>
<path d="M344 486 l-1 -3 1 -4 16 -1 -1 7 z"/>
<path d="M458 486 l-1 -1 0 -7 17 0 -1 7 z"/>
<path d="M505 486 l-1 -1 0 -7 14 0 0 8 z"/>
<path d="M554 486 l-1 -1 0 -7 19 0 0 8 z"/>
<path d="M632 486 l0 -8 16 1 0 6 z"/>
<path d="M747 486 l-1 -3 1 -4 18 -1 0 8 z"/>
<path d="M794 486 l0 -8 14 0 0 8 z"/>
<path d="M844 486 l-1 -3 1 -4 18 -1 0 8 z"/>
<path d="M923 486 l-1 -1 0 -7 17 0 -1 7 z"/>
<path d="M1037 486 l-1 -1 0 -7 19 0 -1 7 z"/>
<path d="M1085 486 l-2 -1 0 -7 14 0 0 7 -4 0 z"/>
<path d="M1136 486 l-4 -1 0 -7 19 0 0 7 -2 0 z"/>
<path d="M1211 486 l0 -8 16 1 1 6 -4 1 z"/>
<path d="M1327 486 l-2 -1 0 -7 19 0 -1 7 z"/>
<path d="M1373 486 l-1 -1 0 -7 14 1 0 6 z"/>
<path d="M1423 486 l-1 -1 0 -7 19 0 -1 7 z"/>
<path d="M1502 486 l-1 -1 0 -7 16 1 1 6 -4 0 z"/>
<path d="M1622 486 l-7 -1 -1 -3 1 -4 18 0 0 7 z"/>
<path d="M2045 486 l1 -14 6 0 0 13 z"/>
<path d="M1662 485 l-1 -2 1 -5 14 0 0 7 z"/>
<path d="M1711 485 l0 -7 19 0 0 7 z"/>
<path d="M1963 471 l0 -7 7 0 0 7 z"/>
<path d="M2167 450 l1 -7 0 -2 7 0 0 9 z"/>
<path d="M1840 441 l0 -8 7 0 0 8 z"/>
<path d="M386 433 l0 -14 7 0 0 14 z"/>
<path d="M534 433 l0 -4 1 -3 9 0 0 7 z"/>
<path d="M572 433 l0 -14 7 0 0 14 z"/>
<path d="M674 433 l1 -13 7 -1 0 14 z"/>
<path d="M824 433 l1 -6 9 -1 0 7 z"/>
<path d="M862 433 l0 -14 7 0 0 14 z"/>
<path d="M965 433 l-1 -5 1 -9 7 0 0 14 z"/>
<path d="M1113 433 l0 -7 10 0 0 7 z"/>
<path d="M1151 433 l0 -14 7 0 0 14 z"/>
<path d="M1253 433 l0 -14 7 0 0 6 1 8 z"/>
<path d="M1403 433 l0 -7 10 0 0 7 z"/>
<path d="M1441 433 l0 -14 7 0 0 14 z"/>
<path d="M1543 433 l0 -14 7 0 0 14 z"/>
<path d="M1692 433 l0 -7 10 0 0 7 z"/>
<path d="M1730 433 l-1 -1 0 -10 1 -3 7 0 0 14 z"/>
<path d="M1758 433 l0 -7 7 0 0 7 z"/>
<path d="M2005 433 l1 -6 7 -1 0 7 z"/>
<path d="M414 426 l0 -7 7 0 0 7 z"/>
<path d="M703 426 l0 -7 7 0 0 7 z"/>
<path d="M993 426 l0 -7 7 0 0 7 z"/>
<path d="M1282 426 l-1 -2 1 -5 7 0 0 7 z"/>
<path d="M1572 426 l-1 -3 1 -3 6 -1 0 2 0 3 0 2 z"/>
<path d="M2041 417 l0 -8 7 0 -1 7 z"/>
<path d="M1980 410 l-1 -3 1 -4 7 -1 0 7 -3 1 z"/>
<path d="M1906 408 l-1 -9 1 -6 5 -1 2 1 0 15 z"/>
<path d="M364 398 l-1 -3 1 -30 6 0 0 32 z"/>
<path d="M427 398 l0 -8 13 1 1 7 z"/>
<path d="M504 398 l1 -7 74 -1 5 1 0 7 z"/>
<path d="M652 398 l0 -34 7 0 0 34 z"/>
<path d="M716 398 l0 -7 14 0 0 7 z"/>
<path d="M794 398 l0 -8 76 1 4 0 0 7 z"/>
<path d="M942 398 l1 -33 6 -1 0 34 z"/>
<path d="M1006 398 l0 -7 14 0 0 7 z"/>
<path d="M1083 398 l0 -8 79 1 0 6 z"/>
<path d="M1231 398 l0 -34 7 0 0 34 z"/>
<path d="M1295 398 l-1 -3 1 -5 7 1 7 0 0 7 z"/>
<path d="M1372 398 l1 -7 79 0 0 6 z"/>
<path d="M1521 398 l0 -34 7 0 0 34 z"/>
<path d="M1585 398 l-1 -3 1 -4 13 -1 0 8 z"/>
<path d="M1662 398 l-1 -3 1 -5 79 0 0 8 z"/>
<path d="M1840 383 l0 -7 7 0 0 7 z"/>
<path d="M1998 381 l1 -25 7 -1 0 26 z"/>
<path d="M2024 381 l0 -7 31 0 0 7 z"/>
<path d="M395 374 l0 -38 7 0 0 38 z"/>
<path d="M684 374 l0 -38 7 0 0 38 z"/>
<path d="M974 374 l0 -38 7 0 0 38 z"/>
<path d="M1263 374 l0 -38 7 0 0 38 z"/>
<path d="M1553 374 l-1 -3 0 -32 1 -3 7 0 0 38 z"/>
<path d="M1958 362 l0 -7 15 0 0 7 z"/>
<path d="M2168 352 l0 -9 7 0 0 9 z"/>
<path d="M457 341 l0 -7 17 0 0 7 z"/>
<path d="M747 341 l0 -7 16 0 0 7 z"/>
<path d="M1036 341 l0 -7 17 0 -1 5 0 2 z"/>
<path d="M1325 341 l0 -7 17 0 -1 6 z"/>
<path d="M1615 341 l-1 -3 1 -5 15 1 1 7 z"/>
<path d="M1875 341 l1 -7 5 0 1 7 z"/>
<path d="M1939 331 l0 -17 7 0 0 17 z"/>
<path d="M2034 331 l-1 -2 0 -38 1 -8 7 0 0 48 z"/>
<path d="M1904 321 l-1 -4 1 -4 7 0 0 7 -3 1 z"/>
<path d="M1824 319 l-1 -2 1 -6 6 1 1 6 -4 1 z"/>
<path d="M498 308 l-1 -1 0 -7 110 0 0 8 z"/>
<path d="M787 308 l0 -8 104 0 1 -2 0 2 6 0 0 7 -4 1 z"/>
<path d="M1131 308 l-55 -1 0 -7 110 0 0 8 z"/>
<path d="M1366 308 l-1 -1 0 -7 111 0 0 7 -32 0 z"/>
<path d="M1726 308 l-72 -1 0 -4 1 -3 110 0 0 7 z"/>
<path d="M1789 286 l-1 -3 1 -3 7 -1 0 7 z"/>
<path d="M1875 282 l0 -8 7 0 0 8 z"/>
<path d="M1904 267 l-1 -2 1 -5 7 0 0 7 z"/>
<path d="M1939 267 l0 -26 7 0 0 26 z"/>
<path d="M2041 260 l0 -48 7 0 0 48 z"/>
<path d="M2093 260 l-1 -3 1 -44 7 -1 -1 47 z"/>
<path d="M2144 234 l0 -8 7 0 0 8 z"/>
<path d="M1751 232 l0 -103 7 0 0 103 z"/>
<path d="M2241 231 l0 -7 7 0 0 7 z"/>
<path d="M1908 229 l1 -54 6 -1 0 7 1 48 z"/>
<path d="M1859 201 l-1 -3 0 -65 1 -4 7 0 -1 71 z"/>
<path d="M1968 198 l-1 -2 1 -5 7 0 0 7 z"/>
<path d="M1987 151 l-1 -2 1 -6 6 1 0 6 z"/>
<path d="M2072 132 l-1 -3 1 -11 6 0 0 11 0 3 z"/>
<path d="M1887 115 l0 -7 7 0 0 7 z"/>
<path d="M1939 115 l0 -7 7 0 0 7 z"/>
<path d="M375 101 l0 -12 12 0 0 12 z"/>
<path d="M1968 101 l-1 -3 1 -5 7 0 -1 7 z"/>
<path d="M2072 94 l-1 -3 1 -4 6 -1 1 7 -1 1 z"/>
<path d="M1831 87 l0 -8 6 1 0 6 z"/>
<path d="M1888 87 l-1 -1 0 -7 14 0 -1 7 z"/>
<path d="M352 78 l0 -13 11 0 0 13 z"/>
</g><g id="Metal" style="opacity:0.5;fill:#8080ff">
<path d="M1961 1456 l0 -16 -100 0 -9 -8 0 -124 11 -10 228 0 14 15 0 113 -12
14 -95 0 0 16 z M2066 1374 l0 -15 -175 0 -1 13 1 3 z"/>
<path d="M651 1426 l-1 -1 0 -22 -10 -1 0 -5 28 0 0 5 -11 1 -1 22 z"/>
<path d="M685 1426 l-1 -3 1 -26 8 -1 10 11 9 -11 8 1 0 28 -5 0 -1 -20 -12
12 -11 -11 -1 19 z"/>
<path d="M824 1420 l-10 -3 -14 -9 -7 -11 -3 -7 -1 -8 -28 0 -9 -6 -6 -7 -2
-7 0 -56 -13 -1 -1 -14 14 0 1 -22 12 0 1 22 22 1 0 13 -22 1 0 53 2 6 6 2 23
0 1 -10 5 -10 7 -8 11 -7 11 -3 17 1 13 6 10 10 5 11 1 10 8 0 1 -104 13 0 0
118 -88 1 0 2 3 7 8 9 11 4 7 0 11 -4 8 -8 0 -2 15 0 0 3 -6 12 -8 7 -16 8 z
M856 1367 l-1 -5 -4 -9 -8 -5 -9 -4 -13 1 -6 3 -7 6 -5 10 0 3 z"/>
<path d="M2150 1413 l-1 -3 1 -147 14 -2 1 -69 -89 0 -1 -3 0 -92 -4 -1 -1
-33 16 1 1 115 87 0 3 1 0 27 8 8 25 27 20 20 67 1 0 149 z"/>
<path d="M29 1412 l-1 -1 0 -149 3 -1 225 0 0 -54 1 -3 225 0 0 -23 129 0 0
-5 135 0 0 -33 26 1 1 16 -11 0 0 33 -268 0 0 23 -223 1 -2 1 0 57 -5 3 -47
31 -20 12 -15 10 -4 3 -2 77 z"/>
<path d="M417 1412 l-1 -3 1 -147 88 -1 34 -47 8 -10 147 1 205 -1 0 -28 134
0 1 -32 24 0 0 15 -9 1 0 33 -138 0 -1 23 -345 1 -1 194 z"/>
<path d="M937 1412 l-1 -1 0 -146 1 -4 97 0 31 -48 7 -8 113 -1 0 -28 134 0 1
-32 24 0 0 15 -7 1 -1 33 -138 1 -1 22 -113 1 0 195 z"/>
<path d="M1232 1412 l1 -150 147 0 2 37 62 1 1 -118 33 -1 0 -5 133 0 0 -33
26 0 -1 16 -8 1 -1 33 -171 0 0 124 -75 75 0 20 z"/>
<path d="M1529 1412 l1 -150 146 0 2 65 128 1 2 -2 0 -30 45 -46 96 0 0 -52 1
-3 61 0 0 -206 -13 1 -1 11 -80 0 -1 16 -50 1 -1 63 -16 0 -1 -79 -94 0 -1 13
-1399 1 0 -18 1384 -1 2 -12 125 0 1 16 35 0 0 -17 80 0 1 -10 36 -1 0 -220
-3 0 -1497 -1 0 -16 1401 -2 0 -305 -1 -13 -93 0 -3 1 0 93 -10 12 -47 47 0
24 -7 1 -10 -1 0 -15 4 -1 0 -14 14 -11 44 -45 0 -41 -72 0 -3 3 0 21 -1399 0
0 -17 972 0 411 -1 0 -23 86 0 0 -47 2 -2 93 -1 2 -11 13 0 1 7 1 5 18 0 1
217 0 118 82 0 1 -29 20 -2 1 -240 29 -1 1 -174 -2 -2 -5 0 0 -162 3 -1 0 -44
-1 -3 -127 0 -1 13 -55 0 0 -15 23 -1 1 4 20 0 0 -13 156 0 -1 72 -6 1 0 137
6 2 1 198 -26 0 0 246 -12 0 -7 1 0 268 -2 2 -1 227 -59 0 -1 3 0 53 -112 0
-15 15 -15 17 0 46 -87 0 -11 11 -6 5 -24 22 -13 12 -8 9 z"/>
<path d="M700 1381 l-1 -3 -1 -58 -4 -8 -9 -7 -11 -1 -11 3 -9 9 -1 63 -13 0
0 -88 13 0 1 9 9 -7 11 -3 13 1 11 5 9 8 6 13 0 63 z"/>
<path d="M610 1379 l-1 -3 1 -85 13 0 0 87 z"/>
<path d="M1737 1317 l-1 -1 0 -151 -53 -1 -2 -32 -65 -1 0 -27 -122 0 0 53
-99 -1 -2 -24 -68 -2 -1 -26 -121 0 -1 53 -97 0 -1 -25 -65 -1 -2 -27 -120 0
-2 53 -96 0 -1 -25 -67 0 -1 -28 -121 -1 -1 54 -102 0 -1 -25 -65 -1 -2 -27
-237 -1 0 -284 -192 -1 0 -148 147 0 2 95 20 33 3 4 20 0 1 -381 108 -1 0 -89
76 0 0 25 66 0 1 3 0 26 122 0 0 -52 1 -3 99 0 0 26 67 0 1 29 121 0 2 -54 98
0 1 25 65 1 2 27 121 1 1 -54 28 -1 0 -46 -121 -1 -1 -52 -58 -54 -85 0 1
-150 145 0 2 78 14 83 3 15 2 56 120 2 1 69 49 0 0 26 65 1 1 28 123 0 1 -53
99 -1 0 24 2 2 64 1 1 27 122 -1 2 -52 25 -2 2 -23 36 -1 0 -108 2 -2 32 0 2
-2 0 -153 5 -1 246 1 1 249 33 0 0 -68 3 -1 13 0 1 3 0 82 -3 1 -18 0 -24 25
0 30 25 26 19 0 0 16 -20 0 -24 25 0 31 22 25 22 0 0 16 -59 -1 -2 -235 -5 -2
0 -55 5 -2 1 -153 -223 0 -2 2 -1 156 -29 1 -5 1 0 110 -38 0 0 25 -27 1 -2
52 -153 0 -1 -27 -50 0 -1 5 -15 -1 -1 -30 -66 0 0 52 -2 2 -153 -1 -1 -27
-49 0 -2 5 -14 -1 -1 -30 -68 0 -1 53 -153 0 -1 -27 -50 0 -1 4 -15 -1 -1 -29
-66 1 -2 52 -153 0 -1 -27 -51 0 -1 4 -15 -1 -1 -29 -67 0 -1 53 -153 0 -1
-27 -50 0 -1 4 -15 -1 -1 -29 -43 0 0 90 -107 0 0 428 158 0 0 -165 -38 0 -1
-3 0 -88 2 -5 209 0 1 3 85 0 0 -3 199 0 1 3 90 0 0 -3 197 0 1 3 90 0 1 -3
198 0 1 3 91 0 1 -2 304 0 1 -26 39 -1 0 -60 -4 -2 -1 -65 17 0 0 145 -35 0 0
26 -30 0 0 1 -2 40 -14 1 -1 -4 0 -38 -202 0 -1 22 -15 0 -1 -22 -271 1 -2 21
-15 0 -1 -22 -117 0 -154 -1 0 22 -2 2 -15 0 -1 -3 0 -21 -272 0 -1 4 0 20
-15 -1 -2 -22 -81 -1 -190 2 -1 21 -5 1 -10 -1 -1 -22 -50 0 0 60 39 1 1 182
45 -1 32 0 1 -22 15 0 1 23 273 0 1 -23 12 -1 5 1 0 23 271 0 0 -23 3 -1 13 0
2 5 0 19 271 0 0 -21 1 -3 13 0 3 1 0 20 1 3 271 0 1 -22 16 -1 0 22 3 1 128
0 1 -60 16 -1 0 61 134 0 0 -35 1 -3 28 0 0 33 -13 1 -3 1 -1 19 -5 1 -428 -1
-82 0 -209 1 0 -2 -671 1 -325 0 0 204 236 0 0 28 50 0 1 -4 15 1 1 29 69 0 0
-54 155 1 1 27 51 0 0 -4 16 0 0 30 65 0 1 -53 154 -1 0 28 50 0 0 -4 16 1 1
29 64 0 1 -53 155 0 1 28 51 -1 1 -4 16 0 1 30 66 0 1 -54 153 1 2 27 49 1 1
-4 15 0 1 35 2 2 86 0 0 -19 124 1 1 34 60 1 25 0 0 16 -58 0 -1 52 -12 1 -5
-1 -1 -51 -24 -2 -1 -32 -2 -2 -88 0 0 19 -53 0 1 36 42 2 0 16 -19 1 -23 23
0 31 6 7 7 9 10 10 20 0 -1 16 z"/>
<path d="M610 1275 l-1 -3 1 -11 13 0 0 13 z"/>
<path d="M1804 1270 l-1 -5 1 -14 4 -1 1 -73 15 -1 2 7 0 6 -2 5 -4 0 0 73 -4
3 z"/>
<path d="M1986 1269 l-1 -3 1 -13 60 -1 1 -6 0 -206 1 -3 29 0 18 -12 3 -2 5
-5 3 0 1 -2 15 -11 1 0 3 -3 3 -2 2 0 0 -2 8 -4 0 -2 3 0 1 -2 7 -5 1 -73 146
0 0 148 -142 0 -19 -3 -32 -5 -21 -3 -24 0 -1 3 0 213 -56 0 0 4 z"/>
<path d="M221 1194 l-3 -2 -3 -2 -3 -3 -2 0 0 -2 -3 0 -1 -3 -3 0 0 -2 -2 0
-49 -35 -123 -2 0 -148 147 0 2 93 2 2 4 9 4 4 -1 1 2 0 0 3 2 0 -1 2 2 0 1 4
2 3 2 2 -1 0 3 2 -1 2 4 4 -1 1 2 0 0 3 2 1 5 9 0 1 3 3 -1 0 3 3 0 3 2 0 0 3
2 0 -1 2 2 0 -1 2 4 4 0 2 2 0 0 2 2 5 2 0 0 3 2 0 1 5 2 0 0 3 86 0 0 -5 134
0 0 -33 25 1 0 15 -7 2 -1 31 -3 1 z"/>
<path d="M1715 1130 l-1 -3 0 -28 -46 0 -1 4 -18 1 -5 -1 1 -16 85 0 0 42 z"/>
<path d="M557 1129 l0 -30 -47 0 -1 4 -22 0 0 -17 86 0 0 43 z"/>
<path d="M850 1129 l-1 -1 0 -29 -46 0 -1 4 -20 0 -3 -1 0 -16 87 0 -1 42 z"/>
<path d="M1137 1129 l-1 -1 0 -29 -47 0 0 4 -23 0 0 -17 85 1 0 41 z"/>
<path d="M1427 1129 l-1 -1 0 -29 -48 0 0 4 -25 0 -1 -3 0 -10 1 -4 90 0 0 40
-1 3 z"/>
<path d="M1849 1113 l-1 -3 1 -13 45 -2 1 -13 29 0 -1 16 -11 1 -1 9 -22 1 -2
4 z"/>
<path d="M1936 1079 l0 -27 -58 0 -2 -2 1 -15 40 -1 1 5 30 0 1 23 47 2 0 14
z"/>
<path d="M349 1075 l-1 -1 0 -21 1 -3 54 0 0 18 -19 0 -1 -6 -17 0 0 11 -2 2
z"/>
<path d="M797 1075 l-1 -35 -277 -1 0 19 4 1 0 15 -15 -1 -1 -34 -257 0 0
-145 16 0 0 17 -5 1 0 111 1 4 1483 0 3 1 0 13 1 3 56 0 0 16 -58 0 0 -4 -9 0
-3 -1 0 -15 -59 0 0 18 4 1 1 15 -5 1 -10 -1 -1 -34 -172 -1 -105 0 0 19 4 1
-1 14 -15 0 -1 -34 -277 1 0 17 3 1 2 2 0 12 -1 3 -16 0 -1 -35 -276 0 0 17 4
1 -1 16 z"/>
<path d="M826 1075 l-1 -3 1 -21 14 0 0 23 z"/>
<path d="M1114 1075 l1 -24 14 0 1 24 z"/>
<path d="M1215 1075 l-1 -1 0 -23 55 0 -1 15 -17 1 -1 -4 -20 0 -1 11 z"/>
<path d="M1506 1075 l0 -24 54 0 0 16 -5 1 -13 -1 -1 -4 -18 1 -2 10 z"/>
<path d="M1694 1075 l-2 -1 0 -23 16 1 0 22 z"/>
<path d="M535 1074 l1 -23 15 -1 0 24 z"/>
<path d="M640 1074 l0 -23 54 0 0 17 -18 0 0 -5 -19 0 0 11 z"/>
<path d="M928 1074 l-1 -3 1 -19 54 -1 0 17 -19 0 -1 -5 -17 0 -1 11 z"/>
<path d="M1403 1074 l0 -23 17 0 0 23 z"/>
<path d="M1814 1037 l-1 -3 1 -20 14 0 0 22 z"/>
<path d="M280 987 l1 -92 16 -1 0 17 -5 0 0 64 183 0 0 -5 16 0 2 5 272 0 1
-4 10 -1 5 1 1 4 272 0 1 -4 15 -1 1 5 272 0 1 -4 15 0 1 4 272 0 1 -4 14 0 1
16 z"/>
<path d="M1811 973 l-1 -1 0 -4 -95 0 -3 -1 0 -51 -14 0 -2 -9 -81 1 -1 23 -2
2 -19 0 -1 -3 0 -12 1 -3 9 0 0 -21 120 1 1 61 103 1 0 15 z"/>
<path d="M1868 973 l0 -22 87 0 0 -21 11 0 1 -5 17 0 -1 17 -15 1 -1 21 -83 0
0 8 -3 1 z"/>
<path d="M811 964 l-3 -5 -105 0 0 4 -184 0 0 -4 -105 0 0 4 -102 0 0 -68 5
-1 9 1 1 16 -3 0 0 40 78 0 1 -4 132 -1 0 5 156 0 0 -5 133 1 1 4 156 0 1 -5
132 0 0 5 156 0 1 -4 131 0 1 4 157 0 1 -4 130 0 1 17 -16 -1 -1 -4 -103 0 -1
4 -183 0 -1 -4 -104 0 -1 4 -184 0 -1 -4 -104 0 0 4 -69 1 z"/>
<path d="M1774 945 l-1 -3 1 -14 153 -1 0 -26 23 1 0 16 -11 1 -1 19 -112 2
-1 0 0 5 z"/>
<path d="M1490 938 l-1 -5 1 -12 22 0 0 16 z"/>
<path d="M574 937 l-1 -1 0 -12 4 -4 20 1 0 15 z"/>
<path d="M622 937 l-1 -3 1 -13 21 0 0 15 z"/>
<path d="M864 937 l0 -15 3 -2 20 1 1 16 z"/>
<path d="M911 937 l1 -16 21 0 1 16 z"/>
<path d="M1152 937 l0 -10 3 -7 18 0 4 2 0 15 z"/>
<path d="M1200 937 l-1 -1 0 -13 1 -3 23 0 0 17 z"/>
<path d="M1442 937 l0 -12 3 -5 19 0 3 1 0 16 z"/>
<path d="M789 935 l-1 -3 1 -13 23 -1 -1 16 z"/>
<path d="M1078 935 l-1 -3 1 -13 24 -1 0 17 z"/>
<path d="M1368 935 l-1 -1 0 -16 23 0 -1 16 z"/>
<path d="M1657 935 l-2 -2 0 -13 3 -2 20 1 0 15 z"/>
<path d="M499 934 l1 -15 21 0 1 15 z"/>
<path d="M436 933 l-1 -5 1 -12 9 -1 0 -21 120 1 22 1 2 -4 14 1 0 14 -37 1
-1 7 -25 0 0 -8 -82 0 -2 4 0 22 z"/>
<path d="M725 933 l0 -18 10 0 0 -20 143 0 0 -3 16 0 -1 16 -37 1 -2 6 -19 1
-5 -1 0 -8 -58 0 -25 -1 -1 26 z"/>
<path d="M1015 933 l-1 -3 1 -14 9 -1 0 -21 119 1 23 1 1 -4 16 0 -1 16 -38 1
-1 6 -23 1 -2 -2 0 -7 -7 -1 -74 0 -2 2 -1 24 z"/>
<path d="M1307 933 l-3 -1 0 -16 8 0 0 -18 1 -4 120 1 23 1 1 -4 16 0 0 16 -5
1 -34 -1 -1 7 -23 0 -1 -8 -85 0 -1 25 z"/>
<path d="M1200 909 l-1 -3 0 -11 1 -3 23 0 -1 16 z"/>
<path d="M1490 909 l-1 -1 0 -15 5 -1 18 1 0 15 z"/>
<path d="M622 908 l-1 -3 1 -12 21 0 0 14 z"/>
<path d="M911 908 l0 -16 23 0 0 16 z"/>
<path d="M250 855 l0 -2 0 -401 2 -3 162 0 -1 -17 -4 -2 0 -15 16 -1 0 35 277
0 0 -18 -4 -1 0 -17 16 0 1 3 0 33 277 0 -1 -18 -4 -1 1 -16 15 0 1 35 276 0
0 -18 -4 -1 1 -16 14 0 1 35 277 -1 1 -17 -4 -1 -1 -14 2 -2 15 0 -1 46 -1318
1 -1 3 -1 373 5 0 0 18 z"/>
<path d="M281 855 l-1 -1 0 -352 1458 0 13 -13 1 -12 14 0 2 2 -1 15 -4 1 -10
10 -6 8 -49 0 -84 1 -1 4 -15 0 -1 -4 -272 0 0 4 -17 0 -1 -4 -272 0 0 4 -16
0 0 -4 -251 0 -21 -1 -2 5 -16 0 0 -5 -172 1 -101 0 0 4 -15 0 0 -4 -43 -1
-104 0 -2 2 0 322 5 1 0 16 z"/>
<path d="M312 855 l-1 -6 0 -324 102 0 1 4 103 0 0 -4 186 0 0 4 104 0 0 -4
185 0 0 4 104 0 1 -4 183 0 1 4 104 0 1 -4 63 0 121 -1 0 5 104 0 1 -4 79 0
28 -29 0 -18 3 -1 11 0 3 1 0 18 -41 41 -72 0 -1 4 -131 1 -1 -4 -156 -1 0 5
-133 0 0 -5 -155 0 -1 4 -132 1 -1 -5 -155 0 -2 5 -132 -1 -1 -4 -156 0 -1 4
-131 1 -1 -4 -72 -1 0 101 -1 199 4 1 -1 16 z"/>
<path d="M1836 855 l-1 -1 0 -25 -6 -1 0 -16 18 -1 0 26 5 1 0 16 z"/>
<path d="M1921 850 l-1 -1 0 -15 4 -2 0 -28 66 0 1 -4 16 1 0 15 -70 1 -1 32
z"/>
<path d="M340 838 l0 -37 -6 -2 0 -15 3 -1 13 0 2 5 0 37 17 0 2 -4 13 0 3 3
0 12 -2 2 z"/>
<path d="M1731 837 l-1 -4 -43 0 -1 -4 -71 0 -2 4 -20 0 -1 -5 1 -11 109 0 1
4 44 0 0 16 z"/>
<path d="M437 833 l-2 -2 1 -14 167 0 1 16 -16 0 -1 -4 -37 -1 -5 1 0 4 -16 0
0 -4 -73 0 0 4 z"/>
<path d="M726 833 l-1 -1 0 -15 94 0 75 -1 0 17 -15 0 0 -4 -44 0 -1 4 -14 -1
-1 -4 -72 0 -1 4 z"/>
<path d="M1014 833 l1 -16 167 0 0 15 -15 1 0 -4 -43 0 0 4 -16 -1 -1 -4 -69
0 -3 1 0 4 z"/>
<path d="M1303 833 l1 -16 52 -1 117 1 0 16 -16 -1 -1 -4 -41 0 -1 4 -17 1 0
-4 -73 0 0 4 z"/>
<path d="M1871 826 l-2 -1 0 -44 -51 0 1 -15 15 -1 0 4 46 1 1 39 4 1 0 15 z"/>
<path d="M1754 810 l0 -5 -6 -1 -263 1 -1 -4 -67 -1 -1 4 -64 0 0 -4 -140 1
-1 4 -16 0 -1 -4 -66 -1 -1 4 -63 0 -1 -4 -139 1 -1 4 -16 0 0 -5 -64 0 0 5
-68 -1 -1 -4 -141 0 -1 4 -15 0 -1 -4 -13 0 -1 4 -112 0 0 -4 -45 0 -3 1 0 4
-15 -1 0 -16 34 -1 0 -103 2 -1 62 1 1 4 61 0 1 -5 16 1 1 4 63 0 1 -4 63 -1
0 5 145 0 3 -5 14 0 0 5 63 0 2 -5 62 0 0 5 145 0 1 -4 11 -1 5 1 0 4 63 0 1
-4 63 -1 1 5 129 1 15 -1 2 -4 16 -1 1 5 61 0 2 -4 62 -1 0 26 1 3 155 0 0 -4
15 0 1 4 124 0 -1 -271 -42 -1 -2 5 -14 0 -2 -3 1 -14 72 -1 -1 296 -319 1 0
-28 -39 0 -1 5 -248 -1 -1 -4 -40 0 0 5 -81 0 -168 -1 0 -4 -39 0 -2 5 -244 0
-4 -2 0 -3 -40 0 -1 4 -163 0 -1 -4 -41 0 0 91 27 0 0 5 89 0 0 -4 196 0 1 4
44 0 0 -4 244 0 0 4 40 0 0 -4 249 0 0 4 40 0 1 -4 96 0 0 4 268 0 0 18 z"/>
<path d="M370 807 l-1 -3 1 -20 15 0 0 22 z"/>
<path d="M562 781 l-1 -4 -77 -1 0 -68 17 0 0 4 190 0 1 -4 16 0 1 4 273 0 1
-4 15 0 1 4 270 -1 1 -4 16 0 1 4 273 1 1 -4 15 0 -1 15 -1079 1 0 40 1293 1
1 16 -13 0 -3 -1 0 -3 -3 -1 -89 0 0 4 -3 1 -12 0 -4 -4 -269 -1 -1 4 -16 0
-1 -4 -272 1 -2 4 -15 0 -1 -4 -271 -1 -1 4 -15 0 -1 -4 -218 1 -2 4 z"/>
<path d="M335 767 l-1 -3 1 -190 58 -1 0 8 82 0 1 -25 20 -1 0 18 -8 0 0 19
-2 2 -117 0 -3 -4 0 -5 -20 0 0 165 4 0 1 3 0 13 -4 1 z"/>
<path d="M370 767 l-1 -1 0 -15 5 -2 0 -18 -1 -3 -11 0 1 -15 22 0 0 53 z"/>
<path d="M2151 762 l-1 -3 1 -145 69 -2 1 -77 16 0 0 16 61 62 -1 148 z"/>
<path d="M1781 701 l0 -5 -12 -1 -1 -14 2 -2 21 0 1 4 89 0 0 18 z"/>
<path d="M1730 696 l-2 -1 0 -16 23 0 0 17 z"/>
<path d="M1947 691 l0 -170 19 -17 69 -69 0 -26 -44 1 -1 4 -16 -1 -1 -4 -13
0 -36 -38 -24 -25 -3 -4 0 -33 2 -2 14 0 1 3 0 14 -5 2 1 12 12 13 45 46 84 0
0 23 -3 2 -2 18 -87 88 0 144 1 3 4 0 -1 15 z"/>
<path d="M1977 691 l1 -16 10 -1 5 1 0 4 18 0 1 -4 15 0 0 15 z"/>
<path d="M2069 691 l-1 -3 1 -145 121 -2 1 -184 -28 0 0 -19 15 0 1 6 23 1 0
209 -122 1 -1 114 1 5 4 0 0 17 z"/>
<path d="M387 672 l-1 -3 1 -13 14 -1 2 5 71 -1 1 -4 20 1 0 15 z"/>
<path d="M617 672 l-1 -1 0 -16 15 0 2 5 42 0 1 -4 15 0 1 4 72 -1 1 -4 19 0
2 2 -1 14 z"/>
<path d="M907 672 l1 -16 14 0 1 4 42 0 1 -4 14 -1 2 5 71 -1 1 -4 20 1 0 15
z"/>
<path d="M1195 672 l-1 -1 0 -13 1 -3 13 0 3 1 0 4 42 0 1 -4 15 0 1 4 73 0 0
-4 21 0 -1 15 z"/>
<path d="M1486 672 l-2 -2 1 -14 15 -1 1 4 42 0 1 -4 16 0 1 4 71 0 1 -4 19 1
1 7 -1 9 z"/>
<path d="M1728 665 l1 -16 22 0 0 15 z"/>
<path d="M1986 644 l-1 -1 0 -103 3 -1 23 0 0 -26 -4 0 1 -15 15 -1 0 54 -21
0 0 92 -3 1 z"/>
<path d="M1156 597 l-1 -1 0 -17 22 1 0 16 z"/>
<path d="M1196 597 l-2 -5 0 -7 1 -6 38 0 3 -6 23 -1 1 7 1 3 81 -1 1 -25 21
0 0 17 -8 0 -1 5 -1 15 -120 1 0 -2 -23 0 -1 4 z"/>
<path d="M1486 597 l-2 -4 1 -12 38 -1 1 -6 25 -1 0 8 83 0 1 -25 20 -1 0 18
-9 0 -1 20 -120 1 0 -2 -22 0 0 4 -4 1 z"/>
<path d="M576 596 l0 -17 23 0 0 17 z"/>
<path d="M617 596 l-1 -1 0 -16 39 0 2 -6 23 0 2 8 82 0 1 -25 21 0 1 5 -1 11
-10 1 0 21 -121 0 0 -2 -22 0 -1 4 z"/>
<path d="M867 596 l0 -17 22 0 0 17 z"/>
<path d="M907 596 l0 -17 38 0 2 -6 18 -1 7 1 0 9 81 -1 2 -24 20 -1 0 17 -9
0 0 20 -5 1 -114 -1 -24 -1 -1 4 z"/>
<path d="M1445 596 l-1 -3 0 -10 1 -3 22 0 1 3 0 13 z"/>
<path d="M1788 587 l-1 -1 0 -16 18 -1 1 -14 33 0 1 -6 14 0 0 18 -35 1 -1 7
-1 6 -12 2 -1 4 z"/>
<path d="M1568 571 l-1 -1 0 -14 1 -3 18 0 4 1 0 16 -3 1 z"/>
<path d="M410 570 l0 -16 23 0 0 16 z"/>
<path d="M700 570 l-1 -1 0 -16 21 0 3 1 0 16 z"/>
<path d="M989 570 l-1 -5 1 -11 19 -1 5 1 -1 15 z"/>
<path d="M1278 570 l0 -17 22 1 1 16 z"/>
<path d="M577 566 l-1 -1 0 -14 1 -3 22 0 0 18 z"/>
<path d="M624 566 l-1 -3 0 -13 2 -2 20 1 0 16 z"/>
<path d="M867 566 l0 -18 22 0 0 18 z"/>
<path d="M913 566 l1 -17 23 -1 -1 17 z"/>
<path d="M1155 566 l0 -18 23 0 0 18 z"/>
<path d="M1202 566 l0 -18 23 0 0 18 z"/>
<path d="M1445 566 l-1 -3 0 -12 1 -3 23 0 0 18 z"/>
<path d="M1492 566 l-1 -4 0 -10 1 -4 23 0 0 18 z"/>
<path d="M2068 529 l0 -13 1 -3 14 0 1 4 82 0 0 -63 -4 -3 0 -14 2 -2 14 -1 0
95 z"/>
<path d="M29 476 l-1 -3 1 -147 104 -2 19 -7 61 -22 397 1 0 15 -132 2 -2 31
-23 0 0 -14 7 -2 1 -21 -216 0 -9 10 -32 36 -6 7 -15 17 -5 6 -2 92 z"/>
<path d="M1958 476 l0 -18 3 0 0 -31 3 -1 35 0 1 -5 15 0 0 16 -39 1 -3 3 0
35 z"/>
<path d="M381 438 l-1 -3 1 -20 15 0 0 22 z"/>
<path d="M530 438 l-1 -3 1 -14 17 0 1 4 18 -1 2 -10 14 0 0 23 z"/>
<path d="M670 438 l-1 -3 1 -21 15 0 0 23 z"/>
<path d="M820 438 l-1 -3 1 -14 17 0 1 4 18 0 0 -10 2 -2 14 1 0 23 z"/>
<path d="M961 438 l-1 -3 1 -21 13 0 0 23 z"/>
<path d="M1108 438 l-1 -5 1 -12 17 0 2 4 17 0 2 -11 16 -1 -1 24 z"/>
<path d="M1248 438 l-1 -3 1 -21 15 0 0 23 z"/>
<path d="M1399 438 l-1 -3 1 -14 17 -1 1 5 17 0 2 -10 14 0 0 22 z"/>
<path d="M1538 438 l-1 -1 0 -23 17 0 0 24 z"/>
<path d="M1688 438 l-1 -3 1 -13 16 -1 2 5 16 -1 1 -8 3 -3 14 0 0 24 z"/>
<path d="M1755 438 l-3 -3 1 -14 29 -1 1 -57 24 -2 2 -13 36 -1 1 -101 61 -1
3 2 0 7 4 0 1 5 17 0 2 -23 4 -1 0 -115 -4 -1 0 -16 10 -1 7 1 0 168 -5 1 -48
-1 -1 -13 -38 0 -1 3 0 97 -2 2 -36 0 -1 13 -24 2 -1 58 -24 0 -2 5 z"/>
<path d="M359 402 l-1 -3 1 -39 14 0 1 29 48 0 0 -3 22 1 1 13 -2 2 z"/>
<path d="M647 402 l-1 -3 1 -38 15 0 1 29 47 0 1 -4 21 -1 3 2 -1 14 z"/>
<path d="M938 402 l-1 -3 1 -39 10 -1 5 1 0 30 48 0 1 -4 20 0 0 15 z"/>
<path d="M1225 402 l1 -41 15 0 1 29 46 0 1 -4 22 0 0 15 z"/>
<path d="M1517 402 l-1 -3 1 -39 13 0 2 28 46 1 1 -4 21 1 0 15 z"/>
<path d="M1837 388 l-2 -1 0 -17 35 0 0 -41 3 -1 0 -42 -4 -1 1 -16 15 -1 1 5
1 11 73 1 2 -2 0 -95 1 -3 15 0 0 17 -4 1 0 91 -1 3 -87 0 0 47 -5 2 0 36 -3
1 -26 0 -1 5 z"/>
<path d="M1994 385 l-2 -2 1 -32 15 0 2 17 21 0 1 -31 -3 -3 1 -54 9 -2 1 -13
-4 -1 0 -57 15 0 0 83 -5 0 -2 2 1 76 13 1 0 16 z"/>
<path d="M1954 367 l-1 -3 1 -13 21 0 1 11 -1 5 z"/>
<path d="M742 345 l-1 -3 1 -12 8 -2 1 -39 -1 -5 -491 -1 -2 -2 0 -104 -228
-1 0 -149 147 0 2 70 4 5 22 16 29 22 36 26 0 104 2 2 491 0 1 22 137 2 1 0
-1 15 -133 1 -1 32 z"/>
<path d="M1032 345 l-1 -3 1 -12 7 -2 1 -68 -437 0 -15 -19 -13 -16 -25 -32
-12 -16 -71 -1 0 -149 145 0 2 220 437 1 0 1 2 45 136 2 0 15 -133 1 -1 32 z"/>
<path d="M1319 345 l0 -16 8 0 2 -2 0 -80 -11 -20 -16 -28 -12 -22 -57 -1 0
-149 147 0 1 149 -20 33 -20 33 1 52 137 2 0 15 -134 1 -1 32 z"/>
<path d="M1609 345 l-1 -3 1 -13 8 -2 1 -80 -9 -29 -3 -10 -8 -26 -2 -5 -59
-1 0 -148 148 0 1 148 -36 42 -20 24 0 52 137 1 0 16 -132 1 0 32 -3 1 z"/>
<path d="M1934 336 l-1 -3 1 -22 16 0 1 23 -2 2 z"/>
<path d="M1783 291 l-1 -1 0 -28 -35 -1 -2 -178 1 -5 79 0 1 -4 13 0 2 2 -1
14 -82 1 0 32 3 2 0 111 -3 0 0 13 35 1 1 23 5 2 -1 15 z"/>
<path d="M2236 236 l-1 -59 -84 -2 0 -147 146 0 1 143 -47 46 0 19 z"/>
<path d="M1903 234 l-1 -1 0 -113 -20 -1 0 -16 15 -1 1 6 16 0 0 61 4 1 0 63
z"/>
<path d="M690 184 l-1 -3 0 -28 -30 -1 -1 -11 7 -10 7 -14 10 -16 6 -12 14 0
0 51 4 0 0 13 -4 0 -1 30 z M689 140 l0 -24 -2 2 -12 20 0 2 z"/>
<path d="M730 184 l-10 -11 0 -74 11 -10 24 0 12 11 0 73 -12 11 z M751 171
l4 -3 0 -62 -4 -5 -16 0 -2 2 0 66 2 2 z"/>
<path d="M795 184 l-13 -14 0 -70 10 -11 28 0 10 9 0 74 -12 12 z M815 171 l4
-5 0 -60 -4 -5 -15 0 -5 4 0 61 4 5 z"/>
<path d="M855 184 l-10 -11 1 -13 9 -1 0 7 7 6 12 0 7 -7 0 -14 -2 -6 -6 -3
-5 0 0 -12 2 -2 4 0 6 -4 0 -19 -5 -4 -16 0 -3 4 -2 7 -9 0 -1 -13 11 -11 25
0 13 14 0 25 -9 8 9 10 0 25 -4 5 -9 9 z"/>
<path d="M1982 155 l-1 -1 0 -15 4 -1 0 -33 -21 -1 0 -14 14 -1 0 4 18 1 0 60
z"/>
<path d="M339 112 l0 -23 13 0 0 12 11 0 0 11 z"/>
<path d="M376 89 l0 -12 -12 0 0 -13 23 0 0 25 z"/>
</g></svg>